<svg width="34" height="34" viewBox="0 0 34 34" fill="none" xmlns="http://www.w3.org/2000/svg">
<mask id="path-1-inside-1_959_78" fill="white" >
<path d="M34 17C34 26.3888 26.3888 34 17 34C7.61116 34 0 26.3888 0 17C0 7.61116 7.61116 0 17 0C26.3888 0 34 7.61116 34 17Z"/>
</mask>
<path d="M16.2929 22.7071C16.6834 23.0976 17.3166 23.0976 17.7071 22.7071L24.0711 16.3431C24.4616 15.9526 24.4616 15.3195 24.0711 14.9289C23.6805 14.5384 23.0474 14.5384 22.6569 14.9289L17 20.5858L11.3431 14.9289C10.9526 14.5384 10.3195 14.5384 9.92893 14.9289C9.53841 15.3195 9.53841 15.9526 9.92893 16.3431L16.2929 22.7071ZM16 21V22H18V21H16ZM32 17C32 25.2843 25.2843 32 17 32V36C27.4934 36 36 27.4934 36 17H32ZM17 32C8.71573 32 2 25.2843 2 17H-2C-2 27.4934 6.50659 36 17 36V32ZM2 17C2 8.71573 8.71573 2 17 2V-2C6.50659 -2 -2 6.50659 -2 17H2ZM17 2C25.2843 2 32 8.71573 32 17H36C36 6.50659 27.4934 -2 17 -2V2Z" fill="white" mask="url(#path-1-inside-1_959_78)"/>
</svg>
