<svg width="22" height="22" viewBox="0 0 22 22" fill="none" xmlns="http://www.w3.org/2000/svg">
<path d="M20.4284 8.36922V16.7244C20.4284 17.1875 20.2636 17.5838 19.9339 17.9135C19.6041 18.2433 19.2078 18.4081 18.7448 18.4081H3.25496C2.79195 18.4081 2.39559 18.2433 2.06587 17.9135C1.73615 17.5838 1.57129 17.1875 1.57129 16.7244V8.36922C1.87996 8.71297 2.23424 9.01813 2.63411 9.28472C5.17365 11.0105 6.91695 12.2206 7.86401 12.9151C8.26389 13.2098 8.58835 13.4395 8.83739 13.6044C9.08644 13.7693 9.41791 13.9376 9.83182 14.1095C10.2457 14.2814 10.6316 14.3673 10.9893 14.3673H11.0104C11.3682 14.3673 11.754 14.2814 12.1679 14.1095C12.5818 13.9376 12.9133 13.7693 13.1623 13.6044C13.4114 13.4395 13.7358 13.2098 14.1357 12.9151C15.3283 12.0522 17.0751 10.8421 19.3761 9.28472C19.776 9.01113 20.1268 8.70596 20.4284 8.36922ZM20.4284 5.27547C20.4284 5.82968 20.2566 6.35934 19.9128 6.86444C19.5691 7.36954 19.1411 7.80098 18.629 8.15876C15.9912 9.98976 14.3497 11.1297 13.7043 11.5787C13.6341 11.6279 13.485 11.7348 13.257 11.8997C13.029 12.0645 12.8396 12.1978 12.6888 12.2995C12.538 12.4013 12.3556 12.5153 12.1416 12.6415C11.9276 12.7678 11.7259 12.8625 11.5365 12.9257C11.3471 12.9888 11.1717 13.0204 11.0104 13.0204H10.9893C10.828 13.0204 10.6526 12.9888 10.4632 12.9257C10.2738 12.8625 10.0721 12.7678 9.85812 12.6415C9.64416 12.5153 9.46176 12.4013 9.31092 12.2995C9.1601 12.1978 8.97069 12.0645 8.74269 11.8997C8.51469 11.7348 8.36561 11.6278 8.29546 11.5787C7.65707 11.1297 6.73806 10.4896 5.53844 9.65828C4.33882 8.82696 3.61976 8.32712 3.38124 8.15876C2.94629 7.86412 2.53589 7.45898 2.15005 6.94336C1.76421 6.42773 1.57129 5.94893 1.57129 5.50698C1.57129 4.95978 1.71686 4.50379 2.00799 4.13898C2.29913 3.77419 2.71479 3.5918 3.25496 3.5918H18.7448C19.2008 3.5918 19.5954 3.75666 19.9286 4.08637C20.2618 4.41609 20.4284 4.81246 20.4284 5.27547Z" fill="white"/>
</svg>
