<svg width="45" height="45" viewBox="0 0 45 45" fill="none" xmlns="http://www.w3.org/2000/svg">
<g clip-path="url(#clip0_113_436)">
<path d="M22.4998 3.51C27.7226 3.51 32.4167 5.31281 35.5779 8.55563C38.1791 8.89391 40.633 9.95614 42.6598 11.6212C39.1132 4.16812 31.767 0 22.4998 0C13.3592 0 5.96229 4.1625 2.37354 11.5931C4.23185 10.0764 6.44862 9.06242 8.81135 8.64844C11.9135 5.265 16.8017 3.51 22.4998 3.51Z" fill="#711F30"/>
<path d="M33.7502 33.75C30.8237 33.7534 28.0118 32.6129 25.9145 30.5719L25.9089 30.5663C25.6665 30.3841 25.4065 30.2268 25.1327 30.0966C24.3084 29.714 23.4089 29.5208 22.5002 29.5312C21.3358 29.5312 20.4499 29.8209 19.8705 30.0966C19.5957 30.2266 19.3347 30.384 19.0914 30.5663L19.0858 30.5719C17.7634 31.8557 16.1459 32.7949 14.3754 33.307C12.6049 33.8191 10.7357 33.8884 8.93218 33.5087C7.12865 33.1291 5.44601 32.3122 4.03222 31.1298C2.61843 29.9474 1.51678 28.4358 0.824155 26.7278C0.131525 25.0199 -0.130876 23.1679 0.0600249 21.3347C0.250926 19.5016 0.88928 17.7434 1.91896 16.2148C2.94864 14.6862 4.33811 13.434 5.96518 12.5683C7.59226 11.7026 9.40712 11.2499 11.2502 11.25H33.7502C36.7339 11.25 39.5953 12.4353 41.7051 14.545C43.8149 16.6548 45.0002 19.5163 45.0002 22.5C45.0002 25.4837 43.8149 28.3452 41.7051 30.455C39.5953 32.5647 36.7339 33.75 33.7502 33.75Z" fill="#711F30"/>
</g>
<defs>
<clipPath id="clip0_113_436">
<rect width="45" height="45" fill="white"/>
</clipPath>
</defs>
</svg>
