<svg width="45" height="45" viewBox="0 0 45 45" fill="none" xmlns="http://www.w3.org/2000/svg">
<path d="M32.9895 1.62056C32.8895 1.61968 32.7894 1.62117 32.6873 1.62319C31.5207 1.64692 30.2099 1.86815 28.6828 2.33739C26.7141 2.94234 25.3359 4.78752 25.5325 6.75935C25.6748 8.19548 26.8672 9.7602 28.2461 10.7694C30.4138 12.3554 31.963 13.9905 33.0251 15.5541L33.6953 19.847L35.3186 19.5915L34.8736 16.7406C34.7558 14.7191 34.1722 12.7227 32.9099 10.6678C34.1878 11.4403 35.3146 12.2902 36.2524 13.1424L38.7327 18.0397L40.1966 17.298L37.8648 12.6921C37.2366 11.1674 36.2964 9.7348 34.8956 8.38277C36.2992 8.80236 37.5745 9.33551 38.6723 9.91524L42.1796 13.8896L43.4101 12.8019L39.8505 8.76993L39.8423 8.77828C38.7925 7.47495 37.4504 6.34485 35.6894 5.42174V5.41357C35.6649 5.39221 35.6403 5.43 35.618 5.43C33.3944 5.26916 31.423 5.41532 30.1442 5.75432C31.3195 4.81978 33.2032 4.12421 35.8212 3.88664L39.985 5.49592L40.5783 3.96346L36.9418 2.55721L36.9336 2.5544C35.75 1.98381 34.4882 1.63471 32.9895 1.62056ZM12.0989 1.62319C10.619 1.64359 9.37104 1.98917 8.19876 2.5544L4.55411 3.96328L5.14474 5.49592L9.31128 3.88664C11.9278 4.12447 13.8134 4.82004 14.9884 5.75432C13.7096 5.41532 11.7382 5.26916 9.51457 5.43C9.49225 5.43 9.46764 5.39221 9.44312 5.41365V5.42183C7.68188 6.34503 6.33996 7.47486 5.2902 8.77819L5.2793 8.76993L1.71973 12.802L2.95283 13.8896L6.4602 9.91524C7.55795 9.33551 8.83324 8.80236 10.2369 8.38269C8.83588 9.7348 7.89299 11.1674 7.26492 12.692L4.93318 17.298L6.39981 18.0397L8.87719 13.1423C9.81516 12.2903 10.9417 11.4402 12.2197 10.6678C10.9576 12.7226 10.374 14.7191 10.2559 16.7405L9.81384 19.5913L11.437 19.8467L12.1044 15.5594C13.1665 13.9944 14.7134 12.3569 16.8834 10.7694C18.2624 9.76011 19.4546 8.19539 19.597 6.75926C19.7934 4.78743 18.4181 2.94217 16.4493 2.33731C14.7695 1.82112 13.351 1.60606 12.0987 1.62319H12.0989ZM27.0459 20.7259C26.0431 20.7259 24.9127 21.1574 23.511 22.7226V34.2199C25.202 32.9984 26.8934 32.4948 28.4823 32.4758C30.5027 32.4516 32.3181 33.1466 33.8931 33.8326C35.4681 34.5186 36.8411 35.18 37.774 35.28C38.2405 35.3301 38.5651 35.2723 38.8782 35.0768C39.1583 34.9019 39.46 34.5657 39.7571 33.9756L37.9416 22.5712C37.0057 23.2238 36.1064 23.5866 35.2416 23.6864C34.0281 23.8263 32.9509 23.464 32.0116 22.9859C30.1334 22.0301 28.6573 20.7217 27.0458 20.7256L27.0459 20.7259ZM18.3117 21.1653C16.7193 21.1581 15.1843 22.5232 13.2663 23.5465C12.3072 24.0582 11.2142 24.4601 9.97854 24.3513C9.09806 24.2739 8.18355 23.931 7.23759 23.2829L5.52908 34.5824C6.7258 35.7334 7.75658 35.9505 8.92113 35.7989C10.1751 35.6359 11.587 34.9329 13.0877 34.2087C14.5883 33.4845 16.1911 32.7343 17.9602 32.6953C19.2412 32.6671 20.5731 33.0653 21.8687 34.0438V22.805C20.44 21.1834 19.6912 21.1685 18.3117 21.1651V21.1653ZM3.99381 24.5105L1.8157 38.4166L18.9461 39.5592V41.2291H26.2905V39.5618L43.4758 38.4166L41.2978 24.5105L39.9329 24.6178L41.4214 33.9781L41.4601 34.2224L41.3583 34.4448C40.94 35.3725 40.4139 36.0537 39.7489 36.4692C39.4272 36.67 39.0818 36.7968 38.7299 36.8673L38.7325 36.8839L38.5569 36.9004C38.5495 36.9014 38.5422 36.9021 38.5349 36.903C38.4507 36.915 38.3666 36.9221 38.2822 36.9278H38.2712L22.7255 38.4328L22.6568 38.4385L22.5909 38.4329L8.66309 37.469H8.65482C8.25 37.4869 7.83938 37.4602 7.42699 37.3838C7.42436 37.3833 7.42145 37.3843 7.41873 37.3838C6.27439 37.1699 5.11916 36.5673 4.05691 35.4393L3.78226 35.148L3.8429 34.7525L5.37264 24.6177L3.99381 24.5104V24.5105ZM28.5014 34.1181C26.8753 34.1375 25.1768 34.705 23.2775 36.5461L23.0715 36.7465L34.0194 35.6892C33.7607 35.5714 33.5015 35.4529 33.2366 35.3376C31.7199 34.6768 30.1277 34.0987 28.5015 34.1181H28.5014ZM17.9958 34.3378C16.6857 34.3667 15.2765 34.9777 13.8017 35.6892C13.5101 35.8298 13.2137 35.9745 12.9175 36.1176L22.3245 36.7685L22.0854 36.4939C20.5833 34.7639 19.3059 34.3089 17.9958 34.3377V34.3378Z" fill="#711F30"/>
</svg>
