<svg width="45" height="45" viewBox="0 0 45 45" fill="none" xmlns="http://www.w3.org/2000/svg">
<path d="M28.125 2.10938C25.831 2.1107 23.5689 2.64618 21.5178 3.67338C19.4667 4.70057 17.6829 6.19128 16.3078 8.0274C14.9327 9.86352 14.0041 11.9946 13.5955 14.2519C13.1868 16.5091 13.3094 18.8306 13.9535 21.0322L4.13262 30.8514C3.9368 31.0474 3.78152 31.2801 3.67565 31.5362C3.56978 31.7922 3.51541 32.0667 3.51563 32.3438V39.375C3.51563 39.9344 3.73786 40.471 4.13345 40.8666C4.52903 41.2621 5.06556 41.4844 5.625 41.4844H12.6562C13.2157 41.4844 13.7522 41.2621 14.1478 40.8666C14.5434 40.471 14.7656 39.9344 14.7656 39.375V37.2656H16.875C17.4344 37.2656 17.971 37.0434 18.3666 36.6478C18.7621 36.2522 18.9844 35.7157 18.9844 35.1562V33.0469H21.0937C21.3708 33.0471 21.6453 32.9927 21.9013 32.8868C22.1574 32.781 22.3901 32.6257 22.5861 32.4299L23.9678 31.0465C25.9982 31.6406 28.1326 31.7914 30.2264 31.4888C32.3202 31.1861 34.3246 30.4371 36.1037 29.2924C37.8828 28.1476 39.3952 26.634 40.5384 24.8539C41.6816 23.0738 42.4289 21.0688 42.7297 18.9747C43.0306 16.8807 42.8779 14.7464 42.2821 12.7164C41.6863 10.6865 40.6612 8.80831 39.2763 7.20904C37.8914 5.60976 36.179 4.32676 34.255 3.44692C32.3311 2.56707 30.2406 2.11093 28.125 2.10938ZM28.125 27.4219C26.7949 27.4247 25.4765 27.1741 24.2402 26.6836C23.8525 26.5174 23.4238 26.4712 23.0095 26.5511C22.5953 26.631 22.2145 26.8333 21.9164 27.1318L20.2148 28.8281H16.875C16.3156 28.8281 15.779 29.0504 15.3834 29.4459C14.9879 29.8415 14.7656 30.3781 14.7656 30.9375V33.0469H12.6562C12.0968 33.0469 11.5603 33.2691 11.1647 33.6647C10.7691 34.0603 10.5469 34.5968 10.5469 35.1562V37.2656H7.73438V33.2227L17.8682 23.0889C18.1663 22.7909 18.3684 22.4104 18.4483 21.9966C18.5282 21.5827 18.4823 21.1543 18.3164 20.7668C17.484 18.6702 17.3458 16.362 17.922 14.1811C18.4981 12.0001 19.7584 10.0614 21.5176 8.6495C23.2769 7.23761 25.4425 6.42696 27.6965 6.33659C29.9504 6.24622 32.174 6.88089 34.0406 8.14741C35.9073 9.41392 37.3187 11.2456 38.0676 13.3734C38.8165 15.5012 38.8635 17.813 38.2017 19.9695C37.5398 22.126 36.204 24.0135 34.3903 25.3548C32.5767 26.6961 30.3808 27.4206 28.125 27.4219ZM34.4531 13.3594C34.4531 13.9156 34.2882 14.4594 33.9791 14.9219C33.6701 15.3844 33.2308 15.7449 32.7169 15.9578C32.203 16.1707 31.6375 16.2264 31.0919 16.1178C30.5464 16.0093 30.0452 15.7414 29.6519 15.3481C29.2586 14.9548 28.9907 14.4536 28.8822 13.9081C28.7736 13.3625 28.8293 12.797 29.0422 12.2831C29.2551 11.7692 29.6156 11.3299 30.0781 11.0209C30.5406 10.7118 31.0844 10.5469 31.6406 10.5469C32.3865 10.5469 33.1019 10.8432 33.6294 11.3706C34.1568 11.8981 34.4531 12.6135 34.4531 13.3594Z" fill="#711F30"/>
</svg>
