<svg width="21" height="21" viewBox="0 0 21 21" fill="none" xmlns="http://www.w3.org/2000/svg">
<g clip-path="url(#clip0_113_35)">
<path d="M7.00084 10.5C7.00084 8.56708 8.56742 6.99972 10.5004 6.99972C12.4334 6.99972 14.0008 8.56708 14.0008 10.5C14.0008 12.4329 12.4334 14.0003 10.5004 14.0003C8.56742 14.0003 7.00084 12.4329 7.00084 10.5ZM5.10858 10.5C5.10858 13.4778 7.5225 15.8916 10.5004 15.8916C13.4783 15.8916 15.8923 13.4778 15.8923 10.5C15.8923 7.5222 13.4783 5.10838 10.5004 5.10838C7.5225 5.10838 5.10858 7.5222 5.10858 10.5ZM14.8457 4.8946C14.8454 5.59048 15.4093 6.15482 16.1052 6.1551C16.8011 6.15538 17.3655 5.59148 17.3658 4.8956C17.366 4.19973 16.8021 3.63538 16.1062 3.6351C15.4106 3.63542 14.8463 4.19905 14.8457 4.8946ZM6.25825 19.0467C5.2345 19.0001 4.67806 18.8296 4.30828 18.6855C3.81804 18.4947 3.46825 18.2674 3.10048 17.9001C2.73271 17.5329 2.50506 17.1835 2.31505 16.6932C2.1709 16.3236 2.00037 15.7671 1.95383 14.7433C1.90293 13.6366 1.89276 13.3041 1.89276 10.5001C1.89276 7.69608 1.90377 7.36453 1.95383 6.25682C2.00046 5.23312 2.17224 4.67762 2.31505 4.30693C2.5059 3.81671 2.73322 3.46693 3.10048 3.09918C3.46774 2.73143 3.8172 2.50379 4.30828 2.31378C4.6779 2.16964 5.2345 1.99912 6.25825 1.95258C7.36508 1.90168 7.69756 1.89151 10.5004 1.89151C13.3033 1.89151 13.6361 1.90252 14.7438 1.95258C15.7676 1.9992 16.3231 2.17098 16.6938 2.31378C17.1841 2.50379 17.5339 2.73193 17.9016 3.09918C18.2694 3.46643 18.4962 3.81671 18.6871 4.30693C18.8312 4.67653 19.0017 5.23312 19.0483 6.25682C19.0992 7.36453 19.1093 7.69608 19.1093 10.5001C19.1093 13.3041 19.0992 13.6356 19.0483 14.7433C19.0016 15.7671 18.8303 16.3235 18.6871 16.6932C18.4962 17.1835 18.2689 17.5332 17.9016 17.9001C17.5344 18.2671 17.1841 18.4947 16.6938 18.6855C16.3242 18.8297 15.7676 19.0002 14.7438 19.0467C13.637 19.0977 13.3045 19.1078 10.5004 19.1078C7.6963 19.1078 7.36474 19.0977 6.25825 19.0467ZM6.17131 0.063588C5.05347 0.114492 4.28963 0.291732 3.62256 0.551292C2.93172 0.819336 2.34689 1.17894 1.76247 1.7624C1.17806 2.34587 0.819369 2.9316 0.551314 3.62242C0.291744 4.28988 0.114497 5.05327 0.0635905 6.17106C0.0118445 7.29061 0 7.64854 0 10.5C0 13.3515 0.0118445 13.7094 0.0635905 14.8289C0.114497 15.9468 0.291744 16.7101 0.551314 17.3776C0.819369 18.068 1.17815 18.6544 1.76247 19.2376C2.3468 19.8208 2.93172 20.1799 3.62256 20.4487C4.29089 20.7083 5.05347 20.8855 6.17131 20.9364C7.29149 20.9873 7.64884 21 10.5004 21C13.352 21 13.7099 20.9882 14.8295 20.9364C15.9474 20.8855 16.7108 20.7083 17.3783 20.4487C18.0687 20.1799 18.654 19.8211 19.2384 19.2376C19.8228 18.6541 20.1807 18.068 20.4495 17.3776C20.7091 16.7101 20.8872 15.9467 20.9373 14.8289C20.9882 13.7085 21 13.3515 21 10.5C21 7.64854 20.9882 7.29061 20.9373 6.17106C20.8863 5.05319 20.7091 4.28946 20.4495 3.62242C20.1807 2.93202 19.8219 2.34679 19.2384 1.7624C18.6549 1.17802 18.0687 0.819336 17.3791 0.551292C16.7108 0.291732 15.9474 0.113652 14.8304 0.063588C13.7108 0.012684 13.3528 0 10.5013 0C7.64968 0 7.29149 0.011844 6.17131 0.063588Z" fill="white"/>
</g>
<defs>
<clipPath id="clip0_113_35">
<rect width="21" height="21" fill="white"/>
</clipPath>
</defs>
</svg>
