<svg width="165" height="25" viewBox="0 0 165 25" fill="none" xmlns="http://www.w3.org/2000/svg">
<path d="M0.728027 24V6.12001H7.40003C8.61603 6.12001 9.68803 6.34401 10.616 6.79201C11.56 7.22401 12.296 7.86401 12.824 8.71201C13.352 9.54401 13.616 10.56 13.616 11.76C13.616 12.944 13.344 13.96 12.8 14.808C12.272 15.64 11.544 16.28 10.616 16.728C9.68803 17.176 8.61603 17.4 7.40003 17.4H3.99203V24H0.728027ZM3.99203 14.52H7.44803C8.04003 14.52 8.55203 14.408 8.98403 14.184C9.41603 13.944 9.75203 13.616 9.99203 13.2C10.232 12.784 10.352 12.304 10.352 11.76C10.352 11.2 10.232 10.72 9.99203 10.32C9.75203 9.90401 9.41603 9.58401 8.98403 9.36001C8.55203 9.12001 8.04003 9.00001 7.44803 9.00001H3.99203V14.52Z" fill="white"/>
<path d="M16.0265 24V10.944H19.1705V24H16.0265ZM16.0265 9.48001V6.12001H19.1705V9.48001H16.0265Z" fill="white"/>
<path d="M22.0734 24V10.944H25.0254V13.848L24.7854 13.416C25.0894 12.44 25.5614 11.76 26.2014 11.376C26.8574 10.992 27.6414 10.8 28.5534 10.8H29.3214V13.584H28.1934C27.2974 13.584 26.5774 13.864 26.0334 14.424C25.4894 14.968 25.2174 15.736 25.2174 16.728V24H22.0734Z" fill="white"/>
<path d="M35.01 24.288C34.098 24.288 33.306 24.136 32.634 23.832C31.962 23.528 31.442 23.096 31.074 22.536C30.706 21.96 30.522 21.296 30.522 20.544C30.522 19.824 30.682 19.184 31.002 18.624C31.322 18.048 31.818 17.568 32.49 17.184C33.162 16.8 34.01 16.528 35.034 16.368L39.306 15.672V18.072L35.634 18.696C35.01 18.808 34.546 19.008 34.242 19.296C33.938 19.584 33.786 19.96 33.786 20.424C33.786 20.872 33.954 21.232 34.29 21.504C34.642 21.76 35.074 21.888 35.586 21.888C36.242 21.888 36.818 21.752 37.314 21.48C37.826 21.192 38.218 20.8 38.49 20.304C38.778 19.808 38.922 19.264 38.922 18.672V15.312C38.922 14.752 38.698 14.288 38.25 13.92C37.818 13.536 37.242 13.344 36.522 13.344C35.85 13.344 35.25 13.528 34.722 13.896C34.21 14.248 33.834 14.72 33.594 15.312L31.026 14.064C31.282 13.376 31.682 12.784 32.226 12.288C32.786 11.776 33.442 11.376 34.194 11.088C34.946 10.8 35.762 10.656 36.642 10.656C37.714 10.656 38.658 10.856 39.474 11.256C40.29 11.64 40.922 12.184 41.37 12.888C41.834 13.576 42.066 14.384 42.066 15.312V24H39.09V21.768L39.762 21.72C39.426 22.28 39.026 22.752 38.562 23.136C38.098 23.504 37.57 23.792 36.978 24C36.386 24.192 35.73 24.288 35.01 24.288Z" fill="white"/>
<path d="M50.6895 24.144C49.2175 24.144 48.0735 23.744 47.2575 22.944C46.4575 22.128 46.0575 20.984 46.0575 19.512V13.752H43.8015V10.944H44.0415C44.6815 10.944 45.1775 10.776 45.5295 10.44C45.8815 10.104 46.0575 9.61601 46.0575 8.97601V7.96801H49.2015V10.944H52.2015V13.752H49.2015V19.344C49.2015 19.776 49.2735 20.144 49.4175 20.448C49.5775 20.752 49.8175 20.984 50.1375 21.144C50.4735 21.304 50.8975 21.384 51.4095 21.384C51.5215 21.384 51.6495 21.376 51.7935 21.36C51.9535 21.344 52.1055 21.328 52.2495 21.312V24C52.0255 24.032 51.7695 24.064 51.4815 24.096C51.1935 24.128 50.9295 24.144 50.6895 24.144Z" fill="white"/>
<path d="M60.7263 24.288C59.3823 24.288 58.2063 23.984 57.1983 23.376C56.1903 22.768 55.4063 21.944 54.8463 20.904C54.2863 19.864 54.0063 18.712 54.0063 17.448C54.0063 16.136 54.2863 14.976 54.8463 13.968C55.4223 12.944 56.1983 12.136 57.1743 11.544C58.1663 10.952 59.2703 10.656 60.4863 10.656C61.5103 10.656 62.4063 10.824 63.1743 11.16C63.9583 11.496 64.6223 11.96 65.1663 12.552C65.7103 13.144 66.1263 13.824 66.4143 14.592C66.7023 15.344 66.8463 16.16 66.8463 17.04C66.8463 17.264 66.8303 17.496 66.7983 17.736C66.7823 17.976 66.7423 18.184 66.6783 18.36H56.5983V15.96H64.9023L63.4143 17.088C63.5583 16.352 63.5183 15.696 63.2943 15.12C63.0863 14.544 62.7343 14.088 62.2383 13.752C61.7583 13.416 61.1743 13.248 60.4863 13.248C59.8303 13.248 59.2463 13.416 58.7343 13.752C58.2223 14.072 57.8303 14.552 57.5583 15.192C57.3023 15.816 57.2063 16.576 57.2703 17.472C57.2063 18.272 57.3103 18.984 57.5823 19.608C57.8703 20.216 58.2863 20.688 58.8303 21.024C59.3903 21.36 60.0303 21.528 60.7503 21.528C61.4703 21.528 62.0783 21.376 62.5743 21.072C63.0863 20.768 63.4863 20.36 63.7743 19.848L66.3183 21.096C66.0623 21.72 65.6623 22.272 65.1183 22.752C64.5743 23.232 63.9263 23.608 63.1743 23.88C62.4383 24.152 61.6223 24.288 60.7263 24.288Z" fill="white"/>
<path d="M69.8777 24V6.12001H77.3897C78.3977 6.12001 79.2697 6.31201 80.0057 6.69601C80.7577 7.06401 81.3336 7.58401 81.7337 8.25601C82.1497 8.92801 82.3577 9.71201 82.3577 10.608C82.3577 11.536 82.1256 12.36 81.6617 13.08C81.2137 13.784 80.5657 14.32 79.7177 14.688L79.6936 14.112C80.3977 14.368 80.9977 14.728 81.4937 15.192C82.0057 15.656 82.3977 16.2 82.6697 16.824C82.9417 17.432 83.0777 18.088 83.0777 18.792C83.0777 20.392 82.5657 21.664 81.5416 22.608C80.5336 23.536 79.1577 24 77.4137 24H69.8777ZM71.7977 22.2H77.4137C78.5497 22.2 79.4537 21.904 80.1257 21.312C80.8137 20.704 81.1577 19.872 81.1577 18.816C81.1577 17.776 80.8137 16.952 80.1257 16.344C79.4537 15.72 78.5497 15.408 77.4137 15.408H71.7977V22.2ZM71.7977 13.68H77.2457C78.2057 13.68 78.9736 13.4 79.5497 12.84C80.1417 12.28 80.4377 11.56 80.4377 10.68C80.4377 9.78401 80.1417 9.10401 79.5497 8.64001C78.9736 8.16001 78.2057 7.92001 77.2457 7.92001H71.7977V13.68Z" fill="white"/>
<path d="M86.2543 24V5.83201H88.0543V24H86.2543Z" fill="white"/>
<path d="M97.7626 24.288C96.5466 24.288 95.4426 24 94.4507 23.424C93.4587 22.832 92.6667 22.032 92.0747 21.024C91.4987 20 91.2107 18.84 91.2107 17.544C91.2107 16.264 91.4987 15.12 92.0747 14.112C92.6507 13.104 93.4267 12.312 94.4026 11.736C95.3946 11.144 96.5146 10.848 97.7626 10.848C99.0107 10.848 100.123 11.136 101.099 11.712C102.091 12.288 102.867 13.08 103.427 14.088C104.003 15.096 104.291 16.248 104.291 17.544C104.291 18.856 103.995 20.024 103.403 21.048C102.811 22.056 102.019 22.848 101.027 23.424C100.051 24 98.9626 24.288 97.7626 24.288ZM97.7626 22.488C98.6266 22.488 99.4026 22.272 100.091 21.84C100.795 21.408 101.347 20.816 101.747 20.064C102.163 19.312 102.371 18.472 102.371 17.544C102.371 16.616 102.163 15.784 101.747 15.048C101.347 14.312 100.795 13.728 100.091 13.296C99.4026 12.864 98.6266 12.648 97.7626 12.648C96.8987 12.648 96.1147 12.864 95.4107 13.296C94.7226 13.728 94.1707 14.312 93.7547 15.048C93.3387 15.784 93.1307 16.616 93.1307 17.544C93.1307 18.472 93.3387 19.312 93.7547 20.064C94.1707 20.816 94.7226 21.408 95.4107 21.84C96.1147 22.272 96.8987 22.488 97.7626 22.488Z" fill="white"/>
<path d="M113.489 24.288C112.273 24.288 111.169 24 110.177 23.424C109.185 22.832 108.393 22.032 107.801 21.024C107.225 20 106.937 18.84 106.937 17.544C106.937 16.264 107.225 15.12 107.801 14.112C108.377 13.104 109.153 12.312 110.129 11.736C111.121 11.144 112.241 10.848 113.489 10.848C114.737 10.848 115.849 11.136 116.825 11.712C117.817 12.288 118.593 13.08 119.153 14.088C119.729 15.096 120.017 16.248 120.017 17.544C120.017 18.856 119.721 20.024 119.129 21.048C118.537 22.056 117.745 22.848 116.753 23.424C115.777 24 114.689 24.288 113.489 24.288ZM113.489 22.488C114.353 22.488 115.129 22.272 115.817 21.84C116.521 21.408 117.073 20.816 117.473 20.064C117.889 19.312 118.097 18.472 118.097 17.544C118.097 16.616 117.889 15.784 117.473 15.048C117.073 14.312 116.521 13.728 115.817 13.296C115.129 12.864 114.353 12.648 113.489 12.648C112.625 12.648 111.841 12.864 111.137 13.296C110.449 13.728 109.897 14.312 109.481 15.048C109.065 15.784 108.857 16.616 108.857 17.544C108.857 18.472 109.065 19.312 109.481 20.064C109.897 20.816 110.449 21.408 111.137 21.84C111.841 22.272 112.625 22.488 113.489 22.488Z" fill="white"/>
<path d="M129 24.288C127.8 24.288 126.72 24 125.76 23.424C124.8 22.832 124.04 22.032 123.48 21.024C122.936 20 122.664 18.848 122.664 17.568C122.664 16.272 122.936 15.12 123.48 14.112C124.04 13.104 124.792 12.312 125.736 11.736C126.696 11.144 127.784 10.848 129 10.848C130.104 10.848 131.088 11.088 131.952 11.568C132.816 12.048 133.496 12.696 133.992 13.512L133.704 14.016V5.83201H135.504V24H133.704V21.12L133.992 21.384C133.544 22.312 132.872 23.032 131.976 23.544C131.096 24.04 130.104 24.288 129 24.288ZM129.096 22.488C129.96 22.488 130.736 22.272 131.424 21.84C132.128 21.408 132.68 20.824 133.08 20.088C133.496 19.336 133.704 18.496 133.704 17.568C133.704 16.64 133.496 15.808 133.08 15.072C132.68 14.32 132.128 13.728 131.424 13.296C130.736 12.864 129.96 12.648 129.096 12.648C128.248 12.648 127.48 12.864 126.792 13.296C126.104 13.728 125.56 14.312 125.16 15.048C124.776 15.784 124.584 16.624 124.584 17.568C124.584 18.496 124.776 19.336 125.16 20.088C125.56 20.824 126.096 21.408 126.768 21.84C127.456 22.272 128.232 22.488 129.096 22.488Z" fill="white"/>
<path d="M140.028 5.07201C139.744 5.07201 139.48 5.02001 139.236 4.91601C138.996 4.81201 138.788 4.66801 138.612 4.48401C138.44 4.29601 138.314 4.07801 138.234 3.83001L138.912 3.53601C139.02 3.79201 139.176 3.99401 139.38 4.14201C139.584 4.28601 139.814 4.35801 140.07 4.35801C140.214 4.35801 140.338 4.33601 140.442 4.29201C140.55 4.24401 140.632 4.18001 140.688 4.10001C140.748 4.02001 140.778 3.92401 140.778 3.81201C140.778 3.68001 140.738 3.57201 140.658 3.48801C140.582 3.40001 140.466 3.33201 140.31 3.28401L139.452 3.00801C139.104 2.90001 138.842 2.73801 138.666 2.52201C138.49 2.30601 138.402 2.05201 138.402 1.76001C138.402 1.50401 138.464 1.27801 138.588 1.08201C138.716 0.886008 138.892 0.734008 139.116 0.626008C139.344 0.514008 139.604 0.458008 139.896 0.458008C140.164 0.458008 140.41 0.506008 140.634 0.602008C140.858 0.694008 141.05 0.824008 141.21 0.992008C141.374 1.15601 141.496 1.35001 141.576 1.57401L140.904 1.87401C140.816 1.65001 140.684 1.47801 140.508 1.35801C140.332 1.23401 140.128 1.17201 139.896 1.17201C139.76 1.17201 139.64 1.19601 139.536 1.24401C139.432 1.28801 139.35 1.35201 139.29 1.43601C139.234 1.51601 139.206 1.61201 139.206 1.72401C139.206 1.84801 139.246 1.95801 139.326 2.05401C139.406 2.14601 139.528 2.21801 139.692 2.27001L140.514 2.52801C140.87 2.64401 141.136 2.80401 141.312 3.00801C141.492 3.21201 141.582 3.46401 141.582 3.76401C141.582 4.02001 141.516 4.24601 141.384 4.44201C141.252 4.63801 141.07 4.79201 140.838 4.90401C140.606 5.01601 140.336 5.07201 140.028 5.07201Z" fill="white"/>
<path d="M143.109 5.00001V1.25001H141.951V0.530008H145.071V1.25001H143.931V5.00001H143.109Z" fill="white"/>
<path d="M147.291 5.07201C146.947 5.07201 146.641 5.00001 146.373 4.85601C146.109 4.71201 145.901 4.51401 145.749 4.26201C145.597 4.01001 145.521 3.72401 145.521 3.40401V0.530008H146.337V3.36201C146.337 3.54601 146.377 3.71201 146.457 3.86001C146.541 4.00801 146.655 4.12401 146.799 4.20801C146.943 4.28801 147.107 4.32801 147.291 4.32801C147.479 4.32801 147.643 4.28801 147.783 4.20801C147.927 4.12401 148.039 4.00801 148.119 3.86001C148.203 3.71201 148.245 3.54601 148.245 3.36201V0.530008H149.061V3.40401C149.061 3.72401 148.985 4.01001 148.833 4.26201C148.681 4.51401 148.471 4.71201 148.203 4.85601C147.939 5.00001 147.635 5.07201 147.291 5.07201Z" fill="white"/>
<path d="M149.875 5.00001V0.530008H151.333C151.805 0.530008 152.215 0.626008 152.563 0.818008C152.915 1.00601 153.187 1.26801 153.379 1.60401C153.571 1.93601 153.667 2.32201 153.667 2.76201C153.667 3.19801 153.571 3.58601 153.379 3.92601C153.187 4.26201 152.915 4.52601 152.563 4.71801C152.215 4.90601 151.805 5.00001 151.333 5.00001H149.875ZM150.691 4.28001H151.351C151.655 4.28001 151.917 4.21801 152.137 4.09401C152.361 3.96601 152.535 3.79001 152.659 3.56601C152.783 3.33801 152.845 3.07001 152.845 2.76201C152.845 2.45001 152.783 2.18201 152.659 1.95801C152.535 1.73401 152.361 1.56001 152.137 1.43601C151.917 1.31201 151.655 1.25001 151.351 1.25001H150.691V4.28001Z" fill="white"/>
<path d="M154.317 5.00001V0.530008H155.133V5.00001H154.317Z" fill="white"/>
<path d="M158.195 5.07201C157.867 5.07201 157.561 5.01401 157.277 4.89801C156.993 4.78201 156.745 4.62001 156.533 4.41201C156.321 4.20401 156.155 3.96001 156.035 3.68001C155.919 3.39601 155.861 3.09001 155.861 2.76201C155.861 2.43001 155.919 2.12401 156.035 1.84401C156.151 1.56401 156.315 1.32001 156.527 1.11201C156.739 0.904008 156.987 0.744008 157.271 0.632008C157.555 0.516008 157.863 0.458008 158.195 0.458008C158.527 0.458008 158.835 0.516008 159.119 0.632008C159.403 0.748008 159.651 0.910008 159.863 1.11801C160.075 1.32201 160.239 1.56401 160.355 1.84401C160.475 2.12401 160.535 2.43001 160.535 2.76201C160.535 3.09001 160.475 3.39601 160.355 3.68001C160.235 3.96001 160.069 4.20401 159.857 4.41201C159.645 4.62001 159.397 4.78201 159.113 4.89801C158.833 5.01401 158.527 5.07201 158.195 5.07201ZM158.195 4.32801C158.415 4.32801 158.617 4.29001 158.801 4.21401C158.985 4.13401 159.145 4.02401 159.281 3.88401C159.421 3.74401 159.527 3.57801 159.599 3.38601C159.675 3.19401 159.713 2.98601 159.713 2.76201C159.713 2.53801 159.675 2.33201 159.599 2.14401C159.527 1.95201 159.421 1.78601 159.281 1.64601C159.145 1.50201 158.985 1.39201 158.801 1.31601C158.617 1.24001 158.415 1.20201 158.195 1.20201C157.979 1.20201 157.779 1.24001 157.595 1.31601C157.411 1.39201 157.249 1.50201 157.109 1.64601C156.973 1.78601 156.867 1.95201 156.791 2.14401C156.715 2.33201 156.677 2.53801 156.677 2.76201C156.677 2.98601 156.715 3.19401 156.791 3.38601C156.867 3.57801 156.973 3.74401 157.109 3.88401C157.249 4.02401 157.411 4.13401 157.595 4.21401C157.779 4.29001 157.979 4.32801 158.195 4.32801Z" fill="white"/>
<path d="M162.856 5.07201C162.572 5.07201 162.308 5.02001 162.064 4.91601C161.824 4.81201 161.616 4.66801 161.44 4.48401C161.268 4.29601 161.142 4.07801 161.062 3.83001L161.74 3.53601C161.848 3.79201 162.004 3.99401 162.208 4.14201C162.412 4.28601 162.642 4.35801 162.898 4.35801C163.042 4.35801 163.166 4.33601 163.27 4.29201C163.378 4.24401 163.46 4.18001 163.516 4.10001C163.576 4.02001 163.606 3.92401 163.606 3.81201C163.606 3.68001 163.566 3.57201 163.486 3.48801C163.41 3.40001 163.294 3.33201 163.138 3.28401L162.28 3.00801C161.932 2.90001 161.67 2.73801 161.494 2.52201C161.318 2.30601 161.23 2.05201 161.23 1.76001C161.23 1.50401 161.292 1.27801 161.416 1.08201C161.544 0.886008 161.72 0.734008 161.944 0.626008C162.172 0.514008 162.432 0.458008 162.724 0.458008C162.992 0.458008 163.238 0.506008 163.462 0.602008C163.686 0.694008 163.878 0.824008 164.038 0.992008C164.202 1.15601 164.324 1.35001 164.404 1.57401L163.732 1.87401C163.644 1.65001 163.512 1.47801 163.336 1.35801C163.16 1.23401 162.956 1.17201 162.724 1.17201C162.588 1.17201 162.468 1.19601 162.364 1.24401C162.26 1.28801 162.178 1.35201 162.118 1.43601C162.062 1.51601 162.034 1.61201 162.034 1.72401C162.034 1.84801 162.074 1.95801 162.154 2.05401C162.234 2.14601 162.356 2.21801 162.52 2.27001L163.342 2.52801C163.698 2.64401 163.964 2.80401 164.14 3.00801C164.32 3.21201 164.41 3.46401 164.41 3.76401C164.41 4.02001 164.344 4.24601 164.212 4.44201C164.08 4.63801 163.898 4.79201 163.666 4.90401C163.434 5.01601 163.164 5.07201 162.856 5.07201Z" fill="white"/>
<path d="M138 6.05001H164.71V6.29001H138V6.05001Z" fill="white"/>
</svg>
