<svg width="251" height="29" viewBox="0 0 251 29" fill="none" xmlns="http://www.w3.org/2000/svg">
<path d="M0.591797 28V1.17999H10.5998C12.4238 1.17999 14.0318 1.51599 15.4238 2.18799C16.8398 2.83599 17.9438 3.79599 18.7358 5.06799C19.5278 6.31599 19.9238 7.83999 19.9238 9.63999C19.9238 11.416 19.5158 12.94 18.6998 14.212C17.9078 15.46 16.8158 16.42 15.4238 17.092C14.0318 17.764 12.4238 18.1 10.5998 18.1H5.4878V28H0.591797ZM5.4878 13.78H10.6718C11.5598 13.78 12.3278 13.612 12.9758 13.276C13.6238 12.916 14.1278 12.424 14.4878 11.8C14.8478 11.176 15.0278 10.456 15.0278 9.63999C15.0278 8.79999 14.8478 8.07999 14.4878 7.47999C14.1278 6.85599 13.6238 6.37599 12.9758 6.03999C12.3278 5.67999 11.5598 5.49999 10.6718 5.49999H5.4878V13.78Z" fill="white"/>
<path d="M23.5395 28V8.41599H28.2555V28H23.5395ZM23.5395 6.21999V1.17999H28.2555V6.21999H23.5395Z" fill="white"/>
<path d="M32.6099 28V8.41599H37.0379V12.772L36.6779 12.124C37.1339 10.66 37.8419 9.63999 38.8019 9.06399C39.7859 8.48799 40.9619 8.19999 42.3299 8.19999H43.4819V12.376H41.7899C40.4459 12.376 39.3659 12.796 38.5499 13.636C37.7339 14.452 37.3259 15.604 37.3259 17.092V28H32.6099Z" fill="white"/>
<path d="M52.0147 28.432C50.6467 28.432 49.4587 28.204 48.4507 27.748C47.4427 27.292 46.6627 26.644 46.1107 25.804C45.5587 24.94 45.2827 23.944 45.2827 22.816C45.2827 21.736 45.5227 20.776 46.0027 19.936C46.4827 19.072 47.2267 18.352 48.2347 17.776C49.2427 17.2 50.5147 16.792 52.0507 16.552L58.4587 15.508V19.108L52.9507 20.044C52.0147 20.212 51.3187 20.512 50.8627 20.944C50.4067 21.376 50.1787 21.94 50.1787 22.636C50.1787 23.308 50.4307 23.848 50.9347 24.256C51.4627 24.64 52.1107 24.832 52.8787 24.832C53.8627 24.832 54.7267 24.628 55.4707 24.22C56.2387 23.788 56.8267 23.2 57.2347 22.456C57.6667 21.712 57.8827 20.896 57.8827 20.008V14.968C57.8827 14.128 57.5467 13.432 56.8747 12.88C56.2267 12.304 55.3627 12.016 54.2827 12.016C53.2747 12.016 52.3747 12.292 51.5827 12.844C50.8147 13.372 50.2507 14.08 49.8907 14.968L46.0387 13.096C46.4227 12.064 47.0227 11.176 47.8387 10.432C48.6787 9.66399 49.6627 9.06399 50.7907 8.63199C51.9187 8.19999 53.1427 7.98399 54.4627 7.98399C56.0707 7.98399 57.4867 8.28399 58.7107 8.88399C59.9347 9.45999 60.8827 10.276 61.5547 11.332C62.2507 12.364 62.5987 13.576 62.5987 14.968V28H58.1347V24.652L59.1427 24.58C58.6387 25.42 58.0387 26.128 57.3427 26.704C56.6467 27.256 55.8547 27.688 54.9667 28C54.0787 28.288 53.0947 28.432 52.0147 28.432Z" fill="white"/>
<path d="M75.534 28.216C73.326 28.216 71.61 27.616 70.386 26.416C69.186 25.192 68.586 23.476 68.586 21.268V12.628H65.202V8.41599H65.562C66.5219 8.41599 67.266 8.16399 67.794 7.65999C68.322 7.15599 68.586 6.42399 68.586 5.46399V3.95199H73.302V8.41599H77.802V12.628H73.302V21.016C73.302 21.664 73.41 22.216 73.626 22.672C73.866 23.128 74.226 23.476 74.706 23.716C75.21 23.956 75.846 24.076 76.614 24.076C76.782 24.076 76.974 24.064 77.19 24.04C77.43 24.016 77.658 23.992 77.874 23.968V28C77.538 28.048 77.154 28.096 76.722 28.144C76.29 28.192 75.894 28.216 75.534 28.216Z" fill="white"/>
<path d="M90.5893 28.432C88.5733 28.432 86.8093 27.976 85.2973 27.064C83.7853 26.152 82.6093 24.916 81.7693 23.356C80.9293 21.796 80.5093 20.068 80.5093 18.172C80.5093 16.204 80.9293 14.464 81.7693 12.952C82.6333 11.416 83.7973 10.204 85.2613 9.31599C86.7493 8.42799 88.4053 7.98399 90.2293 7.98399C91.7653 7.98399 93.1093 8.23599 94.2613 8.73999C95.4373 9.24399 96.4333 9.93999 97.2493 10.828C98.0653 11.716 98.6893 12.736 99.1213 13.888C99.5533 15.016 99.7693 16.24 99.7693 17.56C99.7693 17.896 99.7453 18.244 99.6973 18.604C99.6733 18.964 99.6133 19.276 99.5173 19.54H84.3973V15.94H96.8533L94.6213 17.632C94.8373 16.528 94.7773 15.544 94.4413 14.68C94.1293 13.816 93.6013 13.132 92.8573 12.628C92.1373 12.124 91.2613 11.872 90.2293 11.872C89.2453 11.872 88.3693 12.124 87.6013 12.628C86.8333 13.108 86.2453 13.828 85.8373 14.788C85.4533 15.724 85.3093 16.864 85.4053 18.208C85.3093 19.408 85.4653 20.476 85.8733 21.412C86.3053 22.324 86.9293 23.032 87.7453 23.536C88.5853 24.04 89.5453 24.292 90.6253 24.292C91.7053 24.292 92.6173 24.064 93.3613 23.608C94.1293 23.152 94.7293 22.54 95.1613 21.772L98.9773 23.644C98.5933 24.58 97.9933 25.408 97.1773 26.128C96.3613 26.848 95.3893 27.412 94.2613 27.82C93.1573 28.228 91.9333 28.432 90.5893 28.432Z" fill="white"/>
<path d="M104.316 28V1.17999H115.584C117.096 1.17999 118.404 1.46799 119.508 2.04399C120.636 2.59599 121.5 3.37599 122.1 4.38399C122.724 5.39199 123.036 6.56799 123.036 7.91199C123.036 9.30399 122.688 10.54 121.992 11.62C121.32 12.676 120.348 13.48 119.076 14.032L119.04 13.168C120.096 13.552 120.996 14.092 121.74 14.788C122.508 15.484 123.096 16.3 123.504 17.236C123.912 18.148 124.116 19.132 124.116 20.188C124.116 22.588 123.348 24.496 121.812 25.912C120.3 27.304 118.236 28 115.62 28H104.316ZM107.196 25.3H115.62C117.324 25.3 118.68 24.856 119.688 23.968C120.72 23.056 121.236 21.808 121.236 20.224C121.236 18.664 120.72 17.428 119.688 16.516C118.68 15.58 117.324 15.112 115.62 15.112H107.196V25.3ZM107.196 12.52H115.368C116.808 12.52 117.96 12.1 118.824 11.26C119.712 10.42 120.156 9.33999 120.156 8.01999C120.156 6.67599 119.712 5.65599 118.824 4.95999C117.96 4.23999 116.808 3.87999 115.368 3.87999H107.196V12.52Z" fill="white"/>
<path d="M128.881 28V0.747992H131.581V28H128.881Z" fill="white"/>
<path d="M146.144 28.432C144.32 28.432 142.664 28 141.176 27.136C139.688 26.248 138.5 25.048 137.612 23.536C136.748 22 136.316 20.26 136.316 18.316C136.316 16.396 136.748 14.68 137.612 13.168C138.476 11.656 139.64 10.468 141.104 9.60399C142.592 8.71599 144.272 8.27199 146.144 8.27199C148.016 8.27199 149.684 8.70399 151.148 9.56799C152.636 10.432 153.8 11.62 154.64 13.132C155.504 14.644 155.936 16.372 155.936 18.316C155.936 20.284 155.492 22.036 154.604 23.572C153.716 25.084 152.528 26.272 151.04 27.136C149.576 28 147.944 28.432 146.144 28.432ZM146.144 25.732C147.44 25.732 148.604 25.408 149.636 24.76C150.692 24.112 151.52 23.224 152.12 22.096C152.744 20.968 153.056 19.708 153.056 18.316C153.056 16.924 152.744 15.676 152.12 14.572C151.52 13.468 150.692 12.592 149.636 11.944C148.604 11.296 147.44 10.972 146.144 10.972C144.848 10.972 143.672 11.296 142.616 11.944C141.584 12.592 140.756 13.468 140.132 14.572C139.508 15.676 139.196 16.924 139.196 18.316C139.196 19.708 139.508 20.968 140.132 22.096C140.756 23.224 141.584 24.112 142.616 24.76C143.672 25.408 144.848 25.732 146.144 25.732Z" fill="white"/>
<path d="M169.734 28.432C167.91 28.432 166.254 28 164.766 27.136C163.278 26.248 162.09 25.048 161.202 23.536C160.338 22 159.906 20.26 159.906 18.316C159.906 16.396 160.338 14.68 161.202 13.168C162.066 11.656 163.23 10.468 164.694 9.60399C166.182 8.71599 167.862 8.27199 169.734 8.27199C171.606 8.27199 173.274 8.70399 174.738 9.56799C176.226 10.432 177.39 11.62 178.23 13.132C179.094 14.644 179.526 16.372 179.526 18.316C179.526 20.284 179.082 22.036 178.194 23.572C177.306 25.084 176.118 26.272 174.63 27.136C173.166 28 171.534 28.432 169.734 28.432ZM169.734 25.732C171.03 25.732 172.194 25.408 173.226 24.76C174.282 24.112 175.11 23.224 175.71 22.096C176.334 20.968 176.646 19.708 176.646 18.316C176.646 16.924 176.334 15.676 175.71 14.572C175.11 13.468 174.282 12.592 173.226 11.944C172.194 11.296 171.03 10.972 169.734 10.972C168.438 10.972 167.262 11.296 166.206 11.944C165.174 12.592 164.346 13.468 163.722 14.572C163.098 15.676 162.786 16.924 162.786 18.316C162.786 19.708 163.098 20.968 163.722 22.096C164.346 23.224 165.174 24.112 166.206 24.76C167.262 25.408 168.438 25.732 169.734 25.732Z" fill="white"/>
<path d="M192.999 28.432C191.199 28.432 189.579 28 188.139 27.136C186.699 26.248 185.559 25.048 184.719 23.536C183.903 22 183.495 20.272 183.495 18.352C183.495 16.408 183.903 14.68 184.719 13.168C185.559 11.656 186.687 10.468 188.103 9.60399C189.543 8.71599 191.175 8.27199 192.999 8.27199C194.655 8.27199 196.131 8.63199 197.427 9.35199C198.723 10.072 199.743 11.044 200.487 12.268L200.055 13.024V0.747992H202.755V28H200.055V23.68L200.487 24.076C199.815 25.468 198.807 26.548 197.463 27.316C196.143 28.06 194.655 28.432 192.999 28.432ZM193.143 25.732C194.439 25.732 195.603 25.408 196.635 24.76C197.691 24.112 198.519 23.236 199.119 22.132C199.743 21.004 200.055 19.744 200.055 18.352C200.055 16.96 199.743 15.712 199.119 14.608C198.519 13.48 197.691 12.592 196.635 11.944C195.603 11.296 194.439 10.972 193.143 10.972C191.871 10.972 190.719 11.296 189.687 11.944C188.655 12.592 187.839 13.468 187.239 14.572C186.663 15.676 186.375 16.936 186.375 18.352C186.375 19.744 186.663 21.004 187.239 22.132C187.839 23.236 188.643 24.112 189.651 24.76C190.683 25.408 191.847 25.732 193.143 25.732Z" fill="white"/>
<path d="M209.38 8.11999C208.906 8.11999 208.466 8.03333 208.06 7.85999C207.66 7.68666 207.313 7.44666 207.02 7.13999C206.733 6.82666 206.523 6.46333 206.39 6.04999L207.52 5.55999C207.7 5.98666 207.96 6.32333 208.3 6.56999C208.64 6.80999 209.023 6.92999 209.45 6.92999C209.69 6.92999 209.896 6.89333 210.07 6.81999C210.25 6.73999 210.386 6.63333 210.48 6.49999C210.58 6.36666 210.63 6.20666 210.63 6.01999C210.63 5.79999 210.563 5.61999 210.43 5.47999C210.303 5.33333 210.11 5.21999 209.85 5.13999L208.42 4.67999C207.84 4.49999 207.403 4.22999 207.11 3.86999C206.816 3.50999 206.67 3.08666 206.67 2.59999C206.67 2.17333 206.773 1.79666 206.98 1.46999C207.193 1.14333 207.486 0.889993 207.86 0.709993C208.24 0.523326 208.673 0.429993 209.16 0.429993C209.606 0.429993 210.016 0.509993 210.39 0.669993C210.763 0.823326 211.083 1.03999 211.35 1.31999C211.623 1.59333 211.826 1.91666 211.96 2.28999L210.84 2.78999C210.693 2.41666 210.473 2.12999 210.18 1.92999C209.886 1.72333 209.546 1.61999 209.16 1.61999C208.933 1.61999 208.733 1.65999 208.56 1.73999C208.386 1.81333 208.25 1.91999 208.15 2.05999C208.056 2.19333 208.01 2.35333 208.01 2.53999C208.01 2.74666 208.076 2.92999 208.21 3.08999C208.343 3.24333 208.546 3.36333 208.82 3.44999L210.19 3.87999C210.783 4.07333 211.226 4.33999 211.52 4.67999C211.82 5.01999 211.97 5.43999 211.97 5.93999C211.97 6.36666 211.86 6.74333 211.64 7.06999C211.42 7.39666 211.116 7.65333 210.73 7.83999C210.343 8.02666 209.893 8.11999 209.38 8.11999Z" fill="white"/>
<path d="M214.514 7.99999V1.74999H212.584V0.549992H217.784V1.74999H215.884V7.99999H214.514Z" fill="white"/>
<path d="M221.484 8.11999C220.911 8.11999 220.401 7.99999 219.954 7.75999C219.514 7.51999 219.168 7.18999 218.914 6.76999C218.661 6.34999 218.534 5.87333 218.534 5.33999V0.549992H219.894V5.26999C219.894 5.57666 219.961 5.85333 220.094 6.09999C220.234 6.34666 220.424 6.53999 220.664 6.67999C220.904 6.81333 221.178 6.87999 221.484 6.87999C221.798 6.87999 222.071 6.81333 222.304 6.67999C222.544 6.53999 222.731 6.34666 222.864 6.09999C223.004 5.85333 223.074 5.57666 223.074 5.26999V0.549992H224.434V5.33999C224.434 5.87333 224.308 6.34999 224.054 6.76999C223.801 7.18999 223.451 7.51999 223.004 7.75999C222.564 7.99999 222.058 8.11999 221.484 8.11999Z" fill="white"/>
<path d="M225.792 7.99999V0.549992H228.222C229.009 0.549992 229.692 0.709992 230.272 1.02999C230.859 1.34333 231.312 1.77999 231.632 2.33999C231.952 2.89333 232.112 3.53666 232.112 4.26999C232.112 4.99666 231.952 5.64333 231.632 6.20999C231.312 6.76999 230.859 7.20999 230.272 7.52999C229.692 7.84333 229.009 7.99999 228.222 7.99999H225.792ZM227.152 6.79999H228.252C228.759 6.79999 229.195 6.69666 229.562 6.48999C229.935 6.27666 230.225 5.98333 230.432 5.60999C230.639 5.22999 230.742 4.78333 230.742 4.26999C230.742 3.74999 230.639 3.30333 230.432 2.92999C230.225 2.55666 229.935 2.26666 229.562 2.05999C229.195 1.85333 228.759 1.74999 228.252 1.74999H227.152V6.79999Z" fill="white"/>
<path d="M233.194 7.99999V0.549992H234.554V7.99999H233.194Z" fill="white"/>
<path d="M239.657 8.11999C239.111 8.11999 238.601 8.02333 238.127 7.82999C237.654 7.63666 237.241 7.36666 236.887 7.01999C236.534 6.67333 236.257 6.26666 236.057 5.79999C235.864 5.32666 235.767 4.81666 235.767 4.26999C235.767 3.71666 235.864 3.20666 236.057 2.73999C236.251 2.27333 236.524 1.86666 236.877 1.51999C237.231 1.17333 237.644 0.906659 238.117 0.719993C238.591 0.526659 239.104 0.429993 239.657 0.429993C240.211 0.429993 240.724 0.526659 241.197 0.719993C241.671 0.913326 242.084 1.18333 242.437 1.52999C242.791 1.86999 243.064 2.27333 243.257 2.73999C243.457 3.20666 243.557 3.71666 243.557 4.26999C243.557 4.81666 243.457 5.32666 243.257 5.79999C243.057 6.26666 242.781 6.67333 242.427 7.01999C242.074 7.36666 241.661 7.63666 241.187 7.82999C240.721 8.02333 240.211 8.11999 239.657 8.11999ZM239.657 6.87999C240.024 6.87999 240.361 6.81666 240.667 6.68999C240.974 6.55666 241.241 6.37333 241.467 6.13999C241.701 5.90666 241.877 5.62999 241.997 5.30999C242.124 4.98999 242.187 4.64333 242.187 4.26999C242.187 3.89666 242.124 3.55333 241.997 3.23999C241.877 2.91999 241.701 2.64333 241.467 2.40999C241.241 2.16999 240.974 1.98666 240.667 1.85999C240.361 1.73333 240.024 1.66999 239.657 1.66999C239.297 1.66999 238.964 1.73333 238.657 1.85999C238.351 1.98666 238.081 2.16999 237.847 2.40999C237.621 2.64333 237.444 2.91999 237.317 3.23999C237.191 3.55333 237.127 3.89666 237.127 4.26999C237.127 4.64333 237.191 4.98999 237.317 5.30999C237.444 5.62999 237.621 5.90666 237.847 6.13999C238.081 6.37333 238.351 6.55666 238.657 6.68999C238.964 6.81666 239.297 6.87999 239.657 6.87999Z" fill="white"/>
<path d="M247.427 8.11999C246.953 8.11999 246.513 8.03333 246.107 7.85999C245.707 7.68666 245.36 7.44666 245.067 7.13999C244.78 6.82666 244.57 6.46333 244.437 6.04999L245.567 5.55999C245.747 5.98666 246.007 6.32333 246.347 6.56999C246.687 6.80999 247.07 6.92999 247.497 6.92999C247.737 6.92999 247.943 6.89333 248.117 6.81999C248.297 6.73999 248.433 6.63333 248.527 6.49999C248.627 6.36666 248.677 6.20666 248.677 6.01999C248.677 5.79999 248.61 5.61999 248.477 5.47999C248.35 5.33333 248.157 5.21999 247.897 5.13999L246.467 4.67999C245.887 4.49999 245.45 4.22999 245.157 3.86999C244.863 3.50999 244.717 3.08666 244.717 2.59999C244.717 2.17333 244.82 1.79666 245.027 1.46999C245.24 1.14333 245.533 0.889993 245.907 0.709993C246.287 0.523326 246.72 0.429993 247.207 0.429993C247.653 0.429993 248.063 0.509993 248.437 0.669993C248.81 0.823326 249.13 1.03999 249.397 1.31999C249.67 1.59333 249.873 1.91666 250.007 2.28999L248.887 2.78999C248.74 2.41666 248.52 2.12999 248.227 1.92999C247.933 1.72333 247.593 1.61999 247.207 1.61999C246.98 1.61999 246.78 1.65999 246.607 1.73999C246.433 1.81333 246.297 1.91999 246.197 2.05999C246.103 2.19333 246.057 2.35333 246.057 2.53999C246.057 2.74666 246.123 2.92999 246.257 3.08999C246.39 3.24333 246.593 3.36333 246.867 3.44999L248.237 3.87999C248.83 4.07333 249.273 4.33999 249.567 4.67999C249.867 5.01999 250.017 5.43999 250.017 5.93999C250.017 6.36666 249.907 6.74333 249.687 7.06999C249.467 7.39666 249.163 7.65333 248.777 7.83999C248.39 8.02666 247.94 8.11999 247.427 8.11999Z" fill="white"/>
<path d="M206 9.74999H250.517V10.15H206V9.74999Z" fill="white"/>
</svg>
