<svg width="32" height="32" viewBox="0 0 32 32" fill="none" xmlns="http://www.w3.org/2000/svg">
<path d="M0 0H32V32H0V0Z" fill="black"/>
<path d="M3 24V8H9.00942C10.1047 8 11.0702 8.20045 11.9061 8.60134C12.7563 8.98792 13.4192 9.56063 13.8948 10.3195C14.3703 11.064 14.6081 11.9732 14.6081 13.047C14.6081 14.1065 14.3631 15.0157 13.8732 15.7745C13.3976 16.519 12.7419 17.0917 11.9061 17.4926C11.0702 17.8935 10.1047 18.094 9.00942 18.094H5.93986V24H3ZM5.93986 15.5168H9.05266C9.58587 15.5168 10.047 15.4166 10.4361 15.2161C10.8252 15.0013 11.1279 14.7078 11.344 14.3356C11.5602 13.9633 11.6683 13.5338 11.6683 13.047C11.6683 12.5459 11.5602 12.1163 11.344 11.7584C11.1279 11.3861 10.8252 11.0998 10.4361 10.8993C10.047 10.6846 9.58587 10.5772 9.05266 10.5772H5.93986V15.5168Z" fill="white"/>
<path d="M17.1109 24V8H23.8769C24.7848 8 25.5702 8.17181 26.2331 8.51544C26.9104 8.84474 27.4292 9.31007 27.7895 9.91141C28.1642 10.5128 28.3515 11.2143 28.3515 12.0161C28.3515 12.8465 28.1425 13.5839 27.7246 14.2282C27.3211 14.8582 26.7375 15.3378 25.9737 15.6671L25.9521 15.1517C26.5861 15.3808 27.1266 15.7029 27.5733 16.1181C28.0345 16.5333 28.3875 17.0201 28.6325 17.5785C28.8775 18.1226 29 18.7096 29 19.3396C29 20.7714 28.5388 21.9096 27.6165 22.7544C26.7086 23.5848 25.4693 24 23.8985 24H17.1109ZM18.8402 22.3893H23.8985C24.9217 22.3893 25.7359 22.1244 26.3412 21.5946C26.9608 21.0506 27.2707 20.306 27.2707 19.3611C27.2707 18.4304 26.9608 17.6931 26.3412 17.149C25.7359 16.5906 24.9217 16.3114 23.8985 16.3114H18.8402V22.3893ZM18.8402 14.7651H23.7472C24.6118 14.7651 25.3036 14.5145 25.8224 14.0134C26.3556 13.5123 26.6222 12.868 26.6222 12.0805C26.6222 11.2787 26.3556 10.6702 25.8224 10.255C25.3036 9.8255 24.6118 9.61074 23.7472 9.61074H18.8402V14.7651Z" fill="white"/>
</svg>
