<svg width="120" height="118" viewBox="0 0 120 118" fill="none" xmlns="http://www.w3.org/2000/svg">
<path d="M7.92592 53.1631C7.86451 53.642 7.71773 54.0659 7.48558 54.4349C7.25343 54.8038 6.96838 55.1046 6.63047 55.3373C6.28581 55.5691 5.92077 55.7197 5.53534 55.789L5.35574 55.0271C5.89051 54.9145 6.31649 54.6891 6.63367 54.3512C6.94412 54.0124 7.13221 53.5867 7.19793 53.074C7.23944 52.7503 7.22521 52.4608 7.15523 52.2056C7.07939 51.9428 6.95574 51.7325 6.7843 51.5745C6.61286 51.4165 6.40244 51.3222 6.15304 51.2917C5.78231 51.2463 5.48286 51.3124 5.25469 51.49C5.02654 51.6676 4.83432 51.9387 4.67804 52.3032L4.09978 53.6094C3.87643 54.1233 3.56416 54.503 3.16298 54.7485C2.76267 54.9872 2.32997 55.0781 1.86487 55.0212C1.46718 54.9725 1.1292 54.8318 0.850958 54.5991C0.565968 54.3655 0.357469 54.0694 0.225458 53.7107C0.0943075 53.3453 0.0564082 52.9467 0.111753 52.515C0.169696 52.0631 0.30584 51.6687 0.520188 51.3319C0.728661 50.9874 0.98371 50.7069 1.28533 50.4904C1.58695 50.2738 1.90982 50.1318 2.25394 50.0643L2.44625 50.8072C1.98061 50.9146 1.61115 51.1263 1.33787 51.4422C1.06545 51.7514 0.89984 52.1354 0.841035 52.594C0.803849 52.884 0.821535 53.1465 0.894105 53.3815C0.967542 53.6097 1.09084 53.7961 1.26401 53.9406C1.43718 54.0851 1.65184 54.173 1.90798 54.2044C2.21804 54.2423 2.51032 54.1788 2.7848 54.0137C3.05254 53.8478 3.27302 53.5699 3.44624 53.1801L3.95319 52.0295C4.20454 51.4574 4.51483 51.0398 4.88403 50.7767C5.25323 50.5136 5.68724 50.4126 6.18604 50.4736C6.59047 50.5231 6.93432 50.6714 7.21758 50.9184C7.49496 51.1579 7.69749 51.4739 7.82518 51.8663C7.95374 52.252 7.98732 52.6842 7.92592 53.1631Z" fill="white"/>
<path d="M9.73625 44.6171C9.63107 44.9479 9.47573 45.2239 9.27021 45.4449C9.05821 45.6639 8.81841 45.8136 8.55082 45.894C8.28322 45.9743 8.00696 45.97 7.72205 45.881C7.45008 45.796 7.22259 45.6607 7.03954 45.4751C6.85003 45.2875 6.71674 45.0462 6.6397 44.7511C6.56266 44.456 6.5526 44.107 6.60952 43.704L6.91917 41.5544L7.57965 41.7608L7.29655 43.7262C7.24169 44.1227 7.27487 44.4326 7.39608 44.6559C7.51936 44.8727 7.7008 45.0185 7.94038 45.0934C8.1735 45.1663 8.39987 45.1372 8.6195 45.0062C8.84118 44.8686 8.99843 44.6539 9.09123 44.362C9.20465 44.0052 9.22917 43.6706 9.16479 43.3581C9.09394 43.0435 8.95272 42.7712 8.74113 42.5411C8.52955 42.3109 8.26511 42.1462 7.94782 42.0471L6.62685 41.6342C6.31603 41.5371 6.0274 41.5716 5.76096 41.738C5.49453 41.9043 5.30356 42.1691 5.18807 42.5324C5.08702 42.8502 5.07929 43.1544 5.16487 43.4451C5.24398 43.7336 5.39124 43.9758 5.60665 44.1715L5.03692 44.7208C4.8477 44.5547 4.69542 44.3395 4.58011 44.0753C4.46685 43.8045 4.40173 43.5167 4.38473 43.2119C4.36127 42.9051 4.39594 42.6057 4.48874 42.3138C4.61041 41.931 4.79211 41.617 5.03384 41.3716C5.27764 41.1198 5.55807 40.9543 5.87511 40.8751C6.18774 40.7874 6.51565 40.7972 6.85885 40.9044L10.4332 42.0216L10.2012 42.7514L9.16195 42.4265L9.30282 42.3529C9.46821 42.5044 9.60092 42.7028 9.70094 42.948C9.79654 43.1847 9.85166 43.448 9.8663 43.7378C9.87653 44.0191 9.83317 44.3122 9.73625 44.6171Z" fill="white"/>
<path d="M12.3791 37.3734L7.45505 35.0348L7.78637 34.3439L12.7105 36.6825L12.3791 37.3734ZM6.54556 34.6028L5.53502 34.1229L5.86634 33.432L6.87688 33.912L6.54556 34.6028Z" fill="white"/>
<path d="M14.9892 32.482L8.42333 28.4669L8.825 27.8141L15.3908 31.8291L14.9892 32.482Z" fill="white"/>
<path d="M18.0956 27.8877L13.7728 24.5717L14.2404 23.9642L18.5632 27.2801L18.0956 27.8877ZM12.9744 23.9593L12.0873 23.2788L12.5549 22.6712L13.442 23.3517L12.9744 23.9593Z" fill="white"/>
<path d="M21.5814 23.6535L17.7669 19.7645L18.3143 19.2275L19.0544 19.9821L18.9019 20.0748C18.7525 19.7278 18.7161 19.3744 18.7927 19.0145C18.8742 18.6499 19.0609 18.3243 19.3529 18.038C19.6302 17.766 19.94 17.5854 20.2823 17.4964C20.6295 17.4027 20.9755 17.405 21.3202 17.5034C21.6651 17.5922 21.9727 17.7745 22.2432 18.0502L24.7197 20.5752L24.1724 21.1121L21.9022 18.7975C21.6697 18.5605 21.429 18.4027 21.1801 18.3242C20.9361 18.2408 20.6935 18.232 20.4524 18.2976C20.2114 18.3537 19.9912 18.4796 19.7917 18.6752C19.5922 18.8709 19.4597 19.0911 19.3942 19.3357C19.3239 19.5755 19.328 19.823 19.4064 20.0782C19.4802 20.3286 19.6309 20.5698 19.8586 20.802L22.1288 23.1166L21.5814 23.6535Z" fill="white"/>
<path d="M31.8294 17.8492C31.5193 18.0596 31.1994 18.207 30.8699 18.2913C30.546 18.3718 30.2314 18.3928 29.9259 18.3544C29.6298 18.3178 29.357 18.2244 29.1076 18.0742L29.4808 17.3666C29.7151 17.5188 30.001 17.5951 30.3384 17.5955C30.6758 17.5959 31.0249 17.4737 31.3858 17.2289C31.6621 17.0414 31.8799 16.8159 32.039 16.5524C32.1981 16.2888 32.278 16.0053 32.2787 15.7019C32.2793 15.3985 32.1773 15.0951 31.9725 14.7918L31.2955 13.7894L31.4596 13.8132C31.5216 14.246 31.4583 14.6575 31.2695 15.0476C31.0769 15.4321 30.7974 15.7487 30.4308 15.9974C30.0079 16.2843 29.559 16.4414 29.0841 16.4687C28.6092 16.4961 28.1574 16.4054 27.7287 16.1967C27.3018 15.9786 26.9462 15.6589 26.6617 15.2377C26.3735 14.8109 26.2096 14.3611 26.1699 13.8885C26.136 13.412 26.2171 12.9598 26.4132 12.5319C26.615 12.1002 26.9302 11.739 27.3588 11.4483C27.7253 11.1996 28.1149 11.0582 28.5276 11.0239C28.9459 10.9858 29.3391 11.0507 29.7074 11.2185L29.7253 11.4643L29.0427 10.4534L29.6771 10.023L32.6069 14.3615C32.8686 14.749 33.0088 15.1575 33.0275 15.587C33.0556 16.0183 32.9649 16.432 32.7554 16.8279C32.5554 17.2257 32.2467 17.5661 31.8294 17.8492ZM30.038 15.3426C30.3312 15.1437 30.547 14.8908 30.6852 14.5842C30.8196 14.2719 30.8739 13.9443 30.848 13.6016C30.8239 13.2494 30.7114 12.9245 30.5104 12.6268C30.3094 12.3292 30.0521 12.1065 29.7387 11.9589C29.427 11.8018 29.1035 11.7305 28.768 11.7452C28.4288 11.7542 28.1125 11.8582 27.8193 12.0571C27.5204 12.2599 27.301 12.5193 27.1609 12.8355C27.017 13.146 26.958 13.4726 26.9839 13.8154C27.0155 14.1543 27.1336 14.4754 27.3384 14.7786C27.5394 15.0763 27.7929 15.3056 28.099 15.4665C28.4068 15.618 28.7304 15.6892 29.0696 15.6802C29.4107 15.6617 29.7335 15.5492 30.038 15.3426Z" fill="white"/>
<path d="M43.3786 9.65937C42.9166 9.82321 42.5135 9.81504 42.1693 9.63486C41.825 9.45468 41.5656 9.11488 41.3911 8.61545L40.3672 5.68611L39.4143 6.02402L39.1625 5.30369L39.4032 5.21836C39.6213 5.141 39.77 5.00912 39.8491 4.82275C39.9259 4.62997 39.9263 4.42473 39.8502 4.20703L39.6992 3.77483L40.4211 3.51884L40.8373 4.70979L41.9731 4.30702L42.2249 5.02735L41.0891 5.43011L42.1129 8.35946C42.1734 8.53233 42.2527 8.6769 42.3511 8.79316C42.4472 8.90302 42.5696 8.97474 42.7184 9.00834C42.8736 9.03967 43.057 9.01778 43.2688 8.94269C43.3201 8.92449 43.38 8.89967 43.4483 8.86823C43.5166 8.8368 43.5754 8.80878 43.6245 8.78417L43.8494 9.42767C43.7791 9.47418 43.6969 9.51771 43.6029 9.55824C43.5112 9.60518 43.4364 9.63889 43.3786 9.65937Z" fill="white"/>
<path d="M48.4064 8.10324L47.0388 0.517571L47.7912 0.377651L48.3784 3.63438L48.2006 3.62601C48.2717 3.25375 48.4397 2.93943 48.7045 2.68305C48.9761 2.42542 49.3125 2.2593 49.7138 2.18467C50.095 2.11378 50.4518 2.1372 50.784 2.25492C51.123 2.3714 51.4072 2.56713 51.6364 2.84209C51.8712 3.10913 52.0229 3.43304 52.0916 3.81383L52.7203 7.30103L51.9679 7.44095L51.3916 4.24435C51.3325 3.91701 51.2224 3.65096 51.061 3.44621C50.8997 3.24146 50.7012 3.09887 50.4655 3.01842C50.2352 2.93004 49.9864 2.91073 49.7188 2.96048C49.4513 3.01023 49.222 3.11847 49.0308 3.2852C48.8385 3.44525 48.6999 3.65399 48.6149 3.91144C48.5355 4.16096 48.5247 4.44605 48.5825 4.76672L49.1588 7.96332L48.4064 8.10324Z" fill="white"/>
<path d="M60.0289 6.89697C59.5192 6.90165 59.0567 6.78359 58.6414 6.54277C58.2328 6.2951 57.9089 5.95492 57.6696 5.52222C57.4303 5.08953 57.3098 4.59798 57.308 4.04759C57.3061 3.4972 57.4201 3.0103 57.6497 2.58689C57.8794 2.15668 58.1909 1.81746 58.5843 1.56923C58.9844 1.32093 59.4325 1.1945 59.9286 1.18995C60.3228 1.18633 60.673 1.25786 60.9793 1.40455C61.2924 1.54437 61.5581 1.73899 61.7763 1.98841C61.9946 2.23103 62.162 2.5081 62.2786 2.81961C62.3951 3.12432 62.4539 3.43976 62.455 3.76592C62.4552 3.83386 62.4521 3.91204 62.4456 4.00044C62.439 4.08204 62.4291 4.16707 62.4158 4.25553L57.7981 4.29791L57.7957 3.58444L61.9751 3.54608L61.6092 3.85522C61.6691 3.48094 61.6238 3.14839 61.4734 2.85758C61.3297 2.55991 61.1216 2.32738 60.8493 2.16C60.5768 1.98583 60.2707 1.9003 59.931 1.90342C59.5912 1.90654 59.2755 1.99777 58.9838 2.17712C58.699 2.35641 58.4755 2.60649 58.3135 2.92735C58.1514 3.24141 58.0881 3.61573 58.1235 4.0503C58.0909 4.48549 58.1601 4.86538 58.3311 5.18998C58.5088 5.50772 58.7475 5.75356 59.0471 5.92748C59.3535 6.10134 59.68 6.18668 60.0266 6.1835C60.4275 6.17982 60.7636 6.08161 61.0348 5.88885C61.306 5.6961 61.5261 5.45625 61.695 5.1693L62.3486 5.50986C62.2407 5.75547 62.0749 5.98463 61.8513 6.19733C61.6277 6.40324 61.3599 6.57218 61.0477 6.70415C60.7423 6.82927 60.4027 6.89354 60.0289 6.89697Z" fill="white"/>
<path d="M73.4119 8.52566C72.9061 8.39461 72.4966 8.15145 72.1835 7.79617C71.8704 7.44089 71.6868 7.02074 71.6326 6.53572L72.3317 6.40051C72.3975 6.76201 72.5398 7.07304 72.7587 7.3336C72.9841 7.59586 73.261 7.76954 73.5895 7.85464C73.9048 7.93633 74.1909 7.9296 74.4477 7.83446C74.7062 7.73273 74.8686 7.55687 74.9348 7.30688C74.9835 7.12268 74.9692 6.96433 74.892 6.83184C74.8165 6.69278 74.7176 6.57577 74.5953 6.48082C74.473 6.38587 74.3628 6.31162 74.2647 6.25808L73.5634 5.84441C73.1138 5.58032 72.8137 5.29519 72.6631 4.98904C72.5125 4.68288 72.4807 4.36534 72.5677 4.03641C72.6495 3.72721 72.7997 3.47791 73.0183 3.2885C73.2369 3.09909 73.4974 2.97678 73.7998 2.92156C74.1022 2.86635 74.4177 2.88129 74.7461 2.96639C75.1928 3.08211 75.5655 3.3052 75.8641 3.63564C76.171 3.9612 76.3452 4.35078 76.3866 4.80438L75.6777 4.93704C75.6246 4.60696 75.4951 4.32735 75.2889 4.09821C75.0912 3.86419 74.8412 3.70804 74.539 3.62975C74.2434 3.55316 73.9869 3.56755 73.7695 3.67291C73.5521 3.77827 73.4129 3.94607 73.352 4.17632C73.305 4.35395 73.3135 4.5073 73.3776 4.63639C73.4418 4.76548 73.526 4.87165 73.6303 4.95492C73.7412 5.03988 73.8391 5.10743 73.9241 5.15758L74.7332 5.64135C75.1271 5.87697 75.4075 6.15699 75.5743 6.4814C75.7478 6.80752 75.7875 7.14821 75.6935 7.50346C75.6169 7.79292 75.466 8.0315 75.2409 8.21921C75.0223 8.40861 74.7543 8.53251 74.437 8.5909C74.1215 8.64272 73.7798 8.62097 73.4119 8.52566Z" fill="white"/>
<path d="M82.035 11.5506C81.5713 11.3418 81.2017 11.0409 80.9261 10.6479C80.6595 10.2514 80.5083 9.80615 80.4725 9.31199C80.4367 8.81782 80.533 8.3197 80.7616 7.81762C80.9901 7.31554 81.2969 6.91968 81.682 6.63005C82.07 6.33421 82.494 6.15548 82.9542 6.09383C83.4205 6.03497 83.8793 6.10718 84.3307 6.31045C84.6893 6.47196 84.9766 6.68354 85.1928 6.94522C85.4179 7.20348 85.5772 7.49183 85.6707 7.81028C85.7669 8.12253 85.8027 8.4449 85.7781 8.77737C85.7562 9.10364 85.6776 9.41554 85.5422 9.71307C85.5139 9.77505 85.4784 9.84494 85.4355 9.92274C85.3955 9.99434 85.351 10.0676 85.3019 10.1427L81.1009 8.25055L81.3971 7.5997L85.1994 9.3122L84.7386 9.44077C84.9494 9.12491 85.0474 8.80309 85.0327 8.47529C85.027 8.14408 84.9358 7.8453 84.759 7.57896C84.5851 7.30641 84.3436 7.10052 84.0344 6.9613C83.7253 6.82207 83.4011 6.77317 83.0619 6.81459C82.7289 6.85881 82.4219 6.99316 82.1409 7.21766C81.8628 7.43597 81.6489 7.75043 81.4992 8.16106C81.2878 8.54384 81.1916 8.91881 81.2107 9.28595C81.2389 9.64968 81.3523 9.97339 81.551 10.2571C81.7558 10.5435 82.0159 10.7578 82.3312 10.8998C82.696 11.0641 83.0415 11.1151 83.3678 11.053C83.6941 10.9908 83.9938 10.8643 84.2668 10.6736L84.7165 11.257C84.516 11.4356 84.27 11.5751 83.9785 11.6753C83.6899 11.7694 83.3765 11.8113 83.0385 11.801C82.7095 11.7872 82.375 11.7038 82.035 11.5506Z" fill="white"/>
<path d="M89.2752 15.5367C88.9897 15.3418 88.7717 15.1146 88.621 14.855C88.4742 14.5898 88.4019 14.3177 88.4042 14.0388C88.4065 13.7598 88.4924 13.4967 88.662 13.2495C88.8239 13.0135 89.0207 12.8343 89.2525 12.712C89.4881 12.5841 89.7586 12.5253 90.0638 12.5356C90.369 12.5459 90.7059 12.6357 91.0747 12.8049L93.0402 13.7134L92.6471 14.2866L90.8501 13.456C90.4869 13.2906 90.1805 13.2341 89.9309 13.2865C89.6869 13.3427 89.4936 13.4747 89.351 13.6827C89.2123 13.885 89.1731 14.1099 89.2335 14.3573C89.2995 14.6086 89.4584 14.8202 89.7103 14.9921C90.0181 15.2023 90.3311 15.321 90.6492 15.3484C90.9712 15.3702 91.2737 15.3126 91.5566 15.1757C91.8395 15.0388 92.0753 14.8327 92.2642 14.5573L93.0504 13.411C93.2354 13.1412 93.2877 12.8552 93.2075 12.5529C93.1272 12.2506 92.9303 11.9925 92.6169 11.7785C92.3426 11.5913 92.0537 11.4973 91.7503 11.4964C91.4507 11.4899 91.1754 11.5618 90.9243 11.7122L90.5673 11.0107C90.7823 10.8769 91.0333 10.7925 91.3203 10.7574C91.6129 10.7261 91.9076 10.7458 92.2044 10.8163C92.505 10.8813 92.7812 10.9997 93.0331 11.1716C93.3633 11.397 93.6101 11.6603 93.7733 11.9615C93.9421 12.2665 94.0175 12.582 93.9994 12.9079C93.9908 13.232 93.8844 13.543 93.6801 13.8408L91.5527 16.9427L90.923 16.5129L91.5416 15.611L91.5703 15.7668C91.3763 15.8819 91.1472 15.9523 90.883 15.9782C90.6281 16.0023 90.3599 15.98 90.0782 15.9115C89.8059 15.8412 89.5383 15.7162 89.2752 15.5367Z" fill="white"/>
<path d="M96.6832 21.4657C96.3083 21.1029 96.0721 20.6894 95.9746 20.2252C95.877 19.7609 95.9238 19.3035 96.1148 18.8529L96.7883 19.0779C96.668 19.4262 96.6389 19.7679 96.7011 20.1031C96.7681 20.443 96.9233 20.7307 97.1668 20.9663C97.4005 21.1924 97.6522 21.3269 97.9219 21.3698C98.1964 21.4078 98.4237 21.3337 98.6038 21.1477C98.7366 21.0106 98.8019 20.8651 98.7999 20.7114C98.8026 20.5528 98.7741 20.402 98.7145 20.2589C98.6549 20.1159 98.5957 19.9969 98.5367 19.902L98.1308 19.1962C97.8701 18.7447 97.7494 18.3482 97.7689 18.0066C97.7884 17.6651 97.9166 17.3719 98.1537 17.1271C98.3765 16.8969 98.6293 16.7527 98.9121 16.6944C99.1948 16.6361 99.4811 16.657 99.7708 16.7572C100.061 16.8573 100.327 17.0252 100.571 17.2608C100.902 17.5811 101.116 17.9591 101.213 18.3945C101.32 18.8297 101.28 19.2557 101.093 19.6726L100.412 19.4406C100.528 19.126 100.553 18.818 100.486 18.5166C100.429 18.2149 100.289 17.9557 100.065 17.739C99.846 17.527 99.6162 17.4137 99.3757 17.3991C99.1351 17.3845 98.9319 17.4629 98.766 17.6342C98.638 17.7665 98.5702 17.9047 98.5625 18.049C98.5548 18.1933 98.5758 18.3275 98.6255 18.4515C98.6801 18.5801 98.732 18.6873 98.7812 18.7728L99.2463 19.5928C99.4728 19.9921 99.5788 20.3745 99.5644 20.7399C99.555 21.1101 99.4222 21.4274 99.1662 21.6918C98.9576 21.9073 98.7095 22.0418 98.4218 22.0954C98.1391 22.1537 97.8456 22.1305 97.5414 22.0258C97.2419 21.9163 96.9559 21.7296 96.6832 21.4657Z" fill="white"/>
<path d="M105.411 32.4762C105.15 32.0324 105.018 31.5668 105.016 31.0797C105.019 30.5891 105.142 30.1263 105.384 29.6914C105.636 29.2588 105.999 28.9019 106.474 28.6206C106.942 28.3427 107.423 28.1995 107.916 28.191C108.41 28.1824 108.866 28.2938 109.287 28.525C109.717 28.7587 110.067 29.1032 110.335 29.5588C110.603 30.0144 110.737 30.4828 110.735 30.9641C110.737 31.4513 110.614 31.9065 110.365 32.3297C110.12 32.7588 109.76 33.114 109.285 33.3953C108.804 33.6801 108.313 33.8256 107.81 33.8318C107.314 33.8345 106.853 33.7173 106.429 33.4802C106.008 33.2489 105.669 32.9143 105.411 32.4762ZM106.071 32.0855C106.256 32.4009 106.502 32.6373 106.808 32.7947C107.118 32.9579 107.453 33.0309 107.815 33.0137C108.18 33.0023 108.532 32.8959 108.872 32.6944C109.212 32.493 109.472 32.2364 109.652 31.9248C109.836 31.619 109.931 31.2908 109.938 30.94C109.949 30.5951 109.861 30.2649 109.675 29.9495C109.49 29.6341 109.242 29.3948 108.932 29.2316C108.626 29.0743 108.294 28.9995 107.935 29.0074C107.576 29.0153 107.226 29.12 106.886 29.3215C106.546 29.5229 106.283 29.7812 106.097 30.0963C105.911 30.4114 105.813 30.7414 105.802 31.0863C105.795 31.4371 105.885 31.7701 106.071 32.0855Z" fill="white"/>
<path d="M109.012 39.4515L113.398 37.738L113.006 36.7225L113.72 36.4437L114.111 37.4593L114.568 37.2809C114.923 37.1421 115.252 37.1047 115.554 37.1688C115.862 37.2303 116.13 37.366 116.357 37.5759C116.584 37.7858 116.754 38.0394 116.869 38.3368C116.894 38.4 116.915 38.4753 116.934 38.5625C116.96 38.6472 116.976 38.7174 116.983 38.773L116.336 39.0257C116.331 38.9764 116.315 38.9139 116.285 38.8379C116.262 38.7595 116.245 38.7045 116.233 38.6729C116.115 38.3692 115.945 38.1446 115.721 37.9991C115.497 37.8536 115.204 37.8515 114.843 37.9927L114.386 38.1711L114.866 39.4144L114.152 39.6932L113.672 38.4499L109.287 40.1633L109.012 39.4515Z" fill="white"/>
<path d="M112.169 50.7453L117.57 49.8881L117.685 50.6431L112.284 51.5003L112.169 50.7453ZM118.567 49.7297L119.676 49.5538L119.791 50.3088L118.683 50.4847L118.567 49.7297Z" fill="white"/>
<path d="M112.909 56.1156L118.372 56.1785L118.359 56.9429L117.32 56.9309L117.475 56.8104C117.791 56.9635 118.035 57.1872 118.207 57.4814C118.379 57.7824 118.461 58.1096 118.455 58.4629C118.448 58.8842 118.322 59.2633 118.078 59.6003C117.835 59.9373 117.521 60.175 117.138 60.3133L117.132 60.0992C117.551 60.2399 117.866 60.478 118.078 60.8134C118.296 61.1558 118.402 61.5308 118.395 61.9385C118.388 62.3054 118.294 62.6407 118.112 62.9444C117.93 63.255 117.681 63.5002 117.365 63.68C117.056 63.8668 116.708 63.9579 116.321 63.9535L112.774 63.9126L112.787 63.1482L116.038 63.1856C116.371 63.1895 116.654 63.1316 116.888 63.0119C117.121 62.8991 117.3 62.7414 117.426 62.539C117.558 62.3366 117.627 62.1029 117.632 61.8379C117.636 61.5797 117.576 61.3446 117.45 61.1324C117.332 60.9204 117.155 60.7519 116.919 60.6268C116.69 60.5018 116.412 60.4375 116.086 60.4337L112.835 60.3963L112.848 59.6319L116.1 59.6693C116.432 59.6732 116.716 59.6152 116.949 59.4956C117.182 59.3827 117.361 59.2251 117.487 59.0227C117.62 58.8203 117.688 58.5866 117.693 58.3216C117.698 58.0566 117.637 57.8181 117.512 57.6059C117.393 57.4007 117.216 57.2355 116.98 57.1105C116.751 56.9855 116.474 56.9212 116.147 56.9174L112.896 56.88L112.909 56.1156Z" fill="white"/>
<path d="M111.621 69.9514C111.697 69.6128 111.828 69.3246 112.014 69.0867C112.206 68.8502 112.432 68.6804 112.692 68.5771C112.952 68.4739 113.227 68.4542 113.519 68.5181C113.798 68.5792 114.036 68.6941 114.235 68.863C114.44 69.0334 114.594 69.2621 114.696 69.5493C114.798 69.8364 114.839 70.183 114.817 70.5892L114.695 72.7565L114.019 72.6083L114.13 70.6267C114.151 70.2272 114.091 69.9215 113.95 69.7097C113.809 69.5045 113.615 69.375 113.37 69.3212C113.131 69.2689 112.908 69.3175 112.701 69.4671C112.492 69.6232 112.353 69.8507 112.286 70.1494C112.204 70.5145 112.209 70.8498 112.3 71.1554C112.398 71.4624 112.562 71.7214 112.793 71.9322C113.024 72.143 113.302 72.284 113.627 72.3552L114.979 72.6517C115.298 72.7214 115.582 72.662 115.833 72.4732C116.085 72.2845 116.252 72.0043 116.335 71.6325C116.409 71.3073 116.39 71.0037 116.279 70.7217C116.175 70.4412 116.008 70.2129 115.776 70.0368L116.296 69.4403C116.499 69.5893 116.67 69.7904 116.808 70.0435C116.944 70.3032 117.034 70.5841 117.077 70.8862C117.127 71.1897 117.119 71.4908 117.051 71.7895C116.963 72.1811 116.81 72.5096 116.59 72.7749C116.369 73.0468 116.104 73.236 115.794 73.3423C115.49 73.4568 115.163 73.4755 114.811 73.3985L111.152 72.5962L111.32 71.8494L112.384 72.0827L112.25 72.1682C112.072 72.0317 111.922 71.8457 111.801 71.6102C111.685 71.3829 111.608 71.1255 111.568 70.8382C111.533 70.559 111.551 70.2633 111.621 69.9514Z" fill="white"/>
<path d="M106.628 78.8679C106.774 78.5232 106.963 78.2257 107.194 77.9757C107.423 77.7319 107.677 77.5428 107.955 77.4084C108.224 77.2776 108.504 77.2069 108.796 77.1963L108.868 77.9907C108.587 77.9913 108.305 78.0834 108.021 78.267C107.737 78.4506 107.51 78.743 107.34 79.1442C107.209 79.4513 107.149 79.7584 107.159 80.0652C107.168 80.3721 107.256 80.6524 107.421 80.9061C107.586 81.1599 107.837 81.3576 108.175 81.4992L109.291 81.9674L109.14 82.0369C108.852 81.7093 108.681 81.3311 108.627 80.9024C108.579 80.4763 108.642 80.0595 108.815 79.6521C109.014 79.1819 109.306 78.806 109.691 78.5243C110.076 78.2426 110.505 78.072 110.98 78.0126C111.458 77.9621 111.932 78.0352 112.401 78.2319C112.876 78.4312 113.259 78.7174 113.55 79.0906C113.839 79.47 114.017 79.8918 114.085 80.3561C114.151 80.8266 114.082 81.3001 113.88 81.7765C113.707 82.184 113.457 82.5145 113.128 82.768C112.797 83.0279 112.43 83.1881 112.029 83.2486L111.88 83.0532L113.006 83.5253L112.706 84.2305L107.875 82.2044C107.444 82.0235 107.103 81.7587 106.853 81.4102C106.594 81.0654 106.445 80.6705 106.406 80.2256C106.357 79.7844 106.431 79.3318 106.628 78.8679ZM109.502 79.9847C109.364 80.3107 109.32 80.6394 109.371 80.9709C109.428 81.305 109.561 81.6081 109.77 81.8803C109.982 82.1613 110.254 82.3713 110.585 82.5103C110.917 82.6493 111.255 82.695 111.599 82.6474C111.947 82.6087 112.258 82.4918 112.532 82.2967C112.813 82.1043 113.022 81.845 113.161 81.5191C113.302 81.1868 113.345 80.8505 113.29 80.5101C113.242 80.1724 113.114 79.8675 112.905 79.5953C112.694 79.3295 112.419 79.1258 112.082 78.9841C111.75 78.8451 111.412 78.7918 111.066 78.8243C110.725 78.8656 110.414 78.9825 110.133 79.1749C109.856 79.3763 109.646 79.6462 109.502 79.9847Z" fill="white"/>
<path d="M105.384 86.2827L110.048 89.101L109.65 89.7559L104.986 86.9376L105.384 86.2827ZM110.91 89.6215L111.867 90.1999L111.468 90.8548L110.511 90.2764L110.91 89.6215Z" fill="white"/>
<path d="M102.383 90.8717L106.604 94.3152L106.119 94.9087L105.3 94.2405L105.441 94.1317C105.628 94.4599 105.703 94.807 105.667 95.1729C105.626 95.544 105.476 95.8879 105.217 96.2044C104.971 96.5051 104.683 96.7185 104.352 96.8446C104.017 96.9759 103.673 97.0116 103.319 96.9518C102.966 96.9015 102.64 96.7543 102.341 96.5102L99.6001 94.2745L100.085 93.681L102.598 95.7304C102.855 95.9402 103.112 96.0705 103.368 96.1211C103.62 96.1771 103.862 96.1592 104.095 96.0674C104.328 95.9853 104.533 95.836 104.71 95.6197C104.887 95.4034 104.995 95.1702 105.033 94.92C105.077 94.6741 105.045 94.4287 104.939 94.1838C104.838 93.9432 104.662 93.7202 104.41 93.5146L101.897 91.4652L102.383 90.8717Z" fill="white"/>
<path d="M94.956 98.7215C95.2193 98.4945 95.4962 98.3408 95.7866 98.2604C96.0815 98.1851 96.3634 98.1836 96.6324 98.2559C96.9015 98.3281 97.1332 98.4772 97.3277 98.7032C97.5133 98.9189 97.6348 99.1541 97.6922 99.4088C97.754 99.6686 97.7398 99.9447 97.6497 100.237C97.5597 100.529 97.3844 100.833 97.1241 101.146L95.7301 102.818L95.2792 102.294L96.5537 100.766C96.8089 100.456 96.944 100.175 96.9589 99.9202C96.9686 99.6703 96.8917 99.4503 96.7281 99.2603C96.569 99.0754 96.3619 98.9811 96.1069 98.9773C95.8467 98.9779 95.6004 99.0784 95.3682 99.2787C95.0842 99.5234 94.8873 99.7961 94.7773 100.097C94.6717 100.402 94.648 100.709 94.7061 101.017C94.7641 101.325 94.9015 101.604 95.118 101.856L96.0197 102.904C96.2319 103.15 96.4946 103.272 96.8078 103.271C97.1211 103.269 97.4223 103.144 97.7114 102.894C97.9643 102.676 98.131 102.421 98.2115 102.128C98.2965 101.84 98.2992 101.556 98.2197 101.275L98.9916 101.107C99.0644 101.348 99.0801 101.612 99.0387 101.898C98.9921 102.189 98.8958 102.468 98.7497 102.737C98.608 103.012 98.421 103.249 98.1887 103.449C97.8842 103.712 97.5649 103.884 97.231 103.966C96.8918 104.053 96.5672 104.046 96.2569 103.947C95.9459 103.857 95.6732 103.676 95.439 103.404L92.9991 100.569L93.5799 100.069L94.2893 100.893L94.1312 100.882C94.0709 100.665 94.0629 100.426 94.1072 100.164C94.1509 99.912 94.2428 99.6584 94.3829 99.4033C94.5224 99.1579 94.7134 98.9306 94.956 98.7215Z" fill="white"/>
<path d="M87.1282 104.56C87.5451 104.301 87.9412 104.223 88.3164 104.326C88.6916 104.428 89.0179 104.704 89.2953 105.154L90.9222 107.794L91.7822 107.261L92.1823 107.91L91.9651 108.044C91.7682 108.166 91.651 108.327 91.6134 108.526C91.5794 108.73 91.6228 108.93 91.7437 109.127L91.9838 109.516L91.3323 109.92L90.6708 108.847L89.6458 109.482L89.2457 108.833L90.2708 108.198L88.6438 105.558C88.5478 105.402 88.4393 105.278 88.3183 105.186C88.2008 105.099 88.0657 105.055 87.913 105.054C87.7545 105.057 87.5797 105.117 87.3886 105.236C87.3423 105.264 87.2891 105.301 87.2289 105.347C87.1688 105.392 87.1173 105.432 87.0745 105.466L86.7171 104.886C86.776 104.826 86.847 104.766 86.9303 104.706C87.0101 104.641 87.076 104.592 87.1282 104.56Z" fill="white"/>
<path d="M82.4608 107.132L84.73 112.089L84.0346 112.41L81.7654 107.454L82.4608 107.132ZM85.1491 113.004L85.6148 114.021L84.9194 114.343L84.4537 113.326L85.1491 113.004Z" fill="white"/>
<path d="M74.9371 109.889C75.4331 109.742 75.9176 109.726 76.3904 109.841C76.8651 109.962 77.2829 110.192 77.6438 110.531C78 110.878 78.2548 111.316 78.4083 111.844C78.5598 112.365 78.5778 112.865 78.4623 113.345C78.3467 113.825 78.1239 114.242 77.794 114.594C77.4595 114.955 77.0377 115.211 76.5287 115.361C76.0196 115.512 75.5319 115.529 75.0656 115.413C74.5928 115.298 74.1824 115.069 73.8346 114.727C73.4803 114.386 73.2264 113.951 73.073 113.424C72.9176 112.89 72.9 112.378 73.0203 111.89C73.1424 111.408 73.3716 110.99 73.7081 110.635C74.038 110.283 74.4476 110.034 74.9371 109.889ZM75.1503 110.622C74.7979 110.727 74.5069 110.908 74.2774 111.167C74.0414 111.428 73.8864 111.736 73.8123 112.09C73.7316 112.447 73.7462 112.814 73.8561 113.192C73.966 113.57 74.1494 113.883 74.4062 114.133C74.6566 114.384 74.9509 114.555 75.2892 114.646C75.621 114.739 75.9631 114.733 76.3155 114.629C76.6679 114.524 76.9621 114.342 77.1981 114.081C77.4276 113.822 77.5836 113.517 77.6662 113.167C77.7487 112.817 77.735 112.453 77.6251 112.076C77.5152 111.698 77.3309 111.381 77.0722 111.125C76.8134 110.869 76.5182 110.695 76.1864 110.602C75.8481 110.511 75.5027 110.518 75.1503 110.622Z" fill="white"/>
<path d="M67.8635 111.667L68.4189 117.098L67.6584 117.181L67.5506 116.127L67.7271 116.148C67.6279 116.514 67.4364 116.815 67.1529 117.051C66.8627 117.287 66.5147 117.427 66.1091 117.471C65.7237 117.513 65.37 117.462 65.0478 117.319C64.7188 117.177 64.4506 116.96 64.243 116.668C64.0294 116.384 63.9029 116.049 63.8635 115.664L63.5029 112.138L64.2635 112.056L64.594 115.288C64.6279 115.619 64.7174 115.893 64.8626 116.11C65.001 116.327 65.1846 116.485 65.4134 116.583C65.6361 116.689 65.886 116.727 66.1632 116.697C66.4404 116.667 66.6806 116.576 66.8838 116.424C67.0877 116.279 67.2384 116.082 67.3359 115.832C67.4341 115.589 67.4667 115.306 67.4335 114.981L67.103 111.749L67.8635 111.667Z" fill="white"/>
<path d="M56.59 114.664C51.0608 114.382 45.5961 113.283 40.3771 111.39C33.0969 108.75 26.4529 104.624 20.8656 99.2736C15.2783 93.9234 10.8693 87.4652 7.91749 80.3078C5.47339 74.3814 4.07246 68.0823 3.76604 61.6873L3.12878 61.703C3.43686 68.1771 4.85406 74.5541 7.32828 80.5536C10.3136 87.7924 14.7727 94.3239 20.4236 99.7349C26.0743 105.146 32.7938 109.319 40.1567 111.989C45.4433 113.906 50.9789 115.019 56.5799 115.301L56.59 114.664Z" fill="white"/>
</svg>
