<svg width="45" height="45" viewBox="0 0 45 45" fill="none" xmlns="http://www.w3.org/2000/svg">
<path d="M22.5 18.75C24.4891 18.75 26.3968 17.9598 27.8033 16.5533C29.2098 15.1468 30 13.2391 30 11.25C30 9.26088 29.2098 7.35322 27.8033 5.9467C26.3968 4.54018 24.4891 3.75 22.5 3.75C20.5109 3.75 18.6032 4.54018 17.1967 5.9467C15.7902 7.35322 15 9.26088 15 11.25C15 13.2391 15.7902 15.1468 17.1967 16.5533C18.6032 17.9598 20.5109 18.75 22.5 18.75ZM10.3125 24.375C11.5557 24.375 12.748 23.8811 13.6271 23.0021C14.5061 22.123 15 20.9307 15 19.6875C15 18.4443 14.5061 17.252 13.6271 16.3729C12.748 15.4939 11.5557 15 10.3125 15C9.0693 15 7.87701 15.4939 6.99794 16.3729C6.11886 17.252 5.625 18.4443 5.625 19.6875C5.625 20.9307 6.11886 22.123 6.99794 23.0021C7.87701 23.8811 9.0693 24.375 10.3125 24.375ZM39.375 19.6875C39.375 20.9307 38.8811 22.123 38.0021 23.0021C37.123 23.8811 35.9307 24.375 34.6875 24.375C33.4443 24.375 32.252 23.8811 31.3729 23.0021C30.4939 22.123 30 20.9307 30 19.6875C30 18.4443 30.4939 17.252 31.3729 16.3729C32.252 15.4939 33.4443 15 34.6875 15C35.9307 15 37.123 15.4939 38.0021 16.3729C38.8811 17.252 39.375 18.4443 39.375 19.6875ZM22.5 20.625C24.9864 20.625 27.371 21.6127 29.1291 23.3709C30.8873 25.129 31.875 27.5136 31.875 30V41.25H13.125V30C13.125 27.5136 14.1127 25.129 15.8709 23.3709C17.629 21.6127 20.0136 20.625 22.5 20.625ZM9.375 30C9.375 28.7006 9.5625 27.4462 9.915 26.2612L9.59625 26.2875C7.98915 26.464 6.50374 27.2275 5.42487 28.4316C4.34599 29.6357 3.74958 31.1957 3.75 32.8125V41.25H9.375V30ZM41.25 41.25V32.8125C41.2502 31.1407 40.6123 29.5318 39.4666 28.3143C38.3209 27.0968 36.7537 26.3625 35.085 26.2612C35.4356 27.4462 35.625 28.7006 35.625 30V41.25H41.25Z" fill="#711F30"/>
</svg>
