<svg width="45" height="45" viewBox="0 0 45 45" fill="none" xmlns="http://www.w3.org/2000/svg">
<path d="M41.2866 12.1509C42.4878 13.3521 43.4033 14.7144 44.0332 16.2378C44.6631 17.7612 44.9854 19.3799 45 21.0938C45 21.6064 44.9854 22.2217 44.9561 22.9395C44.9268 23.6572 44.8682 24.4336 44.7803 25.2686C44.6924 26.1035 44.5532 26.9604 44.3628 27.8394C44.1724 28.7183 43.9307 29.5898 43.6377 30.4541C43.1982 31.7139 42.6855 32.7393 42.0996 33.5303C41.5137 34.3213 40.9058 34.9438 40.2759 35.3979C39.646 35.8521 39.0088 36.1597 38.3643 36.3208C37.7197 36.4819 37.1191 36.5625 36.5625 36.5625C36.0791 36.5625 35.6396 36.4819 35.2441 36.3208C34.8486 36.1597 34.4678 35.9399 34.1016 35.6616C33.7354 35.3833 33.3984 35.083 33.0908 34.7607C32.7832 34.4385 32.4683 34.0869 32.146 33.7061C31.8384 33.3545 31.5381 33.0176 31.2451 32.6953C30.9521 32.373 30.6372 32.0874 30.3003 31.8384C29.9634 31.5894 29.6265 31.377 29.2896 31.2012C28.9526 31.0254 28.5571 30.9375 28.103 30.9375H16.897C16.4722 30.9521 16.084 31.04 15.7324 31.2012C15.3809 31.3623 15.0366 31.5674 14.6997 31.8164C14.3628 32.0654 14.0552 32.3584 13.7769 32.6953C13.4985 33.0322 13.1909 33.3691 12.854 33.7061C12.5464 34.0576 12.2388 34.4019 11.9312 34.7388C11.6235 35.0757 11.2866 35.3833 10.9204 35.6616C10.5542 35.9399 10.1733 36.1523 9.77783 36.2988C9.38232 36.4453 8.93555 36.5332 8.4375 36.5625C7.88086 36.5625 7.28027 36.4819 6.63574 36.3208C5.99121 36.1597 5.354 35.8594 4.72412 35.4199C4.09424 34.9805 3.48633 34.3579 2.90039 33.5522C2.31445 32.7466 1.80176 31.7139 1.3623 30.4541C1.06934 29.6045 0.834961 28.7402 0.65918 27.8613C0.483398 26.9824 0.344238 26.1182 0.241699 25.2686C0.13916 24.4189 0.0732422 23.6426 0.0439453 22.9395C0.0146484 22.2363 0 21.6211 0 21.0938C0 19.3945 0.314941 17.7832 0.944824 16.2598C1.57471 14.7363 2.49756 13.3667 3.71338 12.1509C4.8999 10.9497 6.26221 10.0342 7.80029 9.4043C9.33838 8.77441 10.957 8.45215 12.6562 8.4375H32.3438C34.043 8.4375 35.6543 8.75244 37.1777 9.38232C38.7012 10.0122 40.0708 10.9351 41.2866 12.1509ZM40.979 29.5312C41.2573 28.7549 41.4771 27.9492 41.6382 27.1143C41.7993 26.2793 41.9165 25.481 41.9897 24.7192C42.063 23.9575 42.1143 23.2544 42.1436 22.6099C42.1729 21.9653 42.1875 21.46 42.1875 21.0938C42.1875 19.7314 41.9312 18.457 41.4185 17.2705C40.9058 16.084 40.2026 15.0439 39.3091 14.1504C38.4155 13.2568 37.3755 12.5537 36.189 12.041C35.0024 11.5283 33.7207 11.2646 32.3438 11.25H12.6562C11.2939 11.25 10.0195 11.5063 8.83301 12.019C7.64648 12.5317 6.60645 13.2349 5.71289 14.1284C4.81934 15.022 4.11621 16.062 3.60352 17.2485C3.09082 18.4351 2.82715 19.7168 2.8125 21.0938C2.8125 21.4746 2.81982 21.98 2.83447 22.6099C2.84912 23.2397 2.90039 23.9355 2.98828 24.6973C3.07617 25.459 3.20068 26.2646 3.36182 27.1143C3.52295 27.9639 3.74268 28.7695 4.021 29.5312C4.38721 30.5859 4.79004 31.3989 5.22949 31.9702C5.66895 32.5415 6.09375 32.959 6.50391 33.2227C6.91406 33.4863 7.29492 33.6401 7.64648 33.6841C7.99805 33.728 8.26172 33.75 8.4375 33.75C8.75977 33.75 9.11133 33.5596 9.49219 33.1787C9.87305 32.7979 10.2832 32.3584 10.7227 31.8604C11.0742 31.4502 11.4478 31.0327 11.8433 30.6079C12.2388 30.1831 12.6855 29.7876 13.1836 29.4214C13.6816 29.0552 14.231 28.7549 14.8315 28.5205C15.4321 28.2861 16.0986 28.1543 16.8311 28.125H28.1689C28.9014 28.1543 29.5679 28.2861 30.1685 28.5205C30.769 28.7549 31.311 29.0479 31.7944 29.3994C32.2778 29.751 32.7246 30.1465 33.1348 30.5859C33.5449 31.0254 33.9258 31.4502 34.2773 31.8604C34.7021 32.3438 35.105 32.7759 35.4858 33.1567C35.8667 33.5376 36.2256 33.7354 36.5625 33.75C36.7383 33.75 36.9946 33.728 37.3315 33.6841C37.6685 33.6401 38.0493 33.4863 38.4741 33.2227C38.8989 32.959 39.3311 32.5415 39.7705 31.9702C40.21 31.3989 40.6128 30.5859 40.979 29.5312ZM11.25 19.6875H14.0625V22.5H11.25V25.3125H8.4375V22.5H5.625V19.6875H8.4375V16.875H11.25V19.6875ZM36.5625 22.5C36.958 22.5 37.3242 22.5732 37.6611 22.7197C37.998 22.8662 38.291 23.064 38.54 23.313C38.7891 23.562 38.9941 23.8623 39.1553 24.2139C39.3164 24.5654 39.3896 24.9316 39.375 25.3125C39.375 25.708 39.3018 26.0742 39.1553 26.4111C39.0088 26.748 38.811 27.041 38.562 27.29C38.313 27.5391 38.0127 27.7441 37.6611 27.9053C37.3096 28.0664 36.9434 28.1396 36.5625 28.125C36.167 28.125 35.8008 28.0518 35.4639 27.9053C35.127 27.7588 34.834 27.561 34.585 27.312C34.3359 27.063 34.1309 26.7627 33.9697 26.4111C33.8086 26.0596 33.7354 25.6934 33.75 25.3125C33.75 24.917 33.8232 24.5508 33.9697 24.2139C34.1162 23.877 34.314 23.584 34.563 23.335C34.812 23.0859 35.1123 22.8809 35.4639 22.7197C35.8154 22.5586 36.1816 22.4854 36.5625 22.5ZM30.9375 16.875C31.333 16.875 31.6992 16.9482 32.0361 17.0947C32.373 17.2412 32.666 17.439 32.915 17.688C33.1641 17.937 33.3691 18.2373 33.5303 18.5889C33.6914 18.9404 33.7646 19.3066 33.75 19.6875C33.75 20.083 33.6768 20.4492 33.5303 20.7861C33.3838 21.123 33.186 21.416 32.937 21.665C32.688 21.9141 32.3877 22.1191 32.0361 22.2803C31.6846 22.4414 31.3184 22.5146 30.9375 22.5C30.542 22.5 30.1758 22.4268 29.8389 22.2803C29.502 22.1338 29.209 21.936 28.96 21.687C28.7109 21.438 28.5059 21.1377 28.3447 20.7861C28.1836 20.4346 28.1104 20.0684 28.125 19.6875C28.125 19.292 28.1982 18.9258 28.3447 18.5889C28.4912 18.252 28.689 17.959 28.938 17.71C29.187 17.4609 29.4873 17.2559 29.8389 17.0947C30.1904 16.9336 30.5566 16.8604 30.9375 16.875Z" fill="#711F30"/>
</svg>
