<svg width="58" height="58" viewBox="0 0 58 58" fill="none" xmlns="http://www.w3.org/2000/svg">
<path d="M14.5 16.9167H26.5833C27.2243 16.9167 27.839 17.1713 28.2922 17.6245C28.7454 18.0777 29 18.6924 29 19.3333C29 19.9743 28.7454 20.589 28.2922 21.0422C27.839 21.4954 27.2243 21.75 26.5833 21.75H14.5C13.8591 21.75 13.2444 21.4954 12.7912 21.0422C12.3379 20.589 12.0833 19.9743 12.0833 19.3333C12.0833 18.6924 12.3379 18.0777 12.7912 17.6245C13.2444 17.1713 13.8591 16.9167 14.5 16.9167ZM31.4167 36.25H43.5C44.1409 36.25 44.7556 36.5046 45.2088 36.9578C45.6621 37.411 45.9167 38.0257 45.9167 38.6667C45.9167 39.3076 45.6621 39.9223 45.2088 40.3755C44.7556 40.8287 44.1409 41.0833 43.5 41.0833H31.4167C30.7757 41.0833 30.161 40.8287 29.7078 40.3755C29.2546 39.9223 29 39.3076 29 38.6667C29 38.0257 29.2546 37.411 29.7078 36.9578C30.161 36.5046 30.7757 36.25 31.4167 36.25ZM14.5 26.5833H43.5C44.1409 26.5833 44.7556 26.838 45.2088 27.2912C45.6621 27.7444 45.9167 28.3591 45.9167 29C45.9167 29.6409 45.6621 30.2556 45.2088 30.7088C44.7556 31.1621 44.1409 31.4167 43.5 31.4167H14.5C13.8591 31.4167 13.2444 31.1621 12.7912 30.7088C12.3379 30.2556 12.0833 29.6409 12.0833 29C12.0833 28.3591 12.3379 27.7444 12.7912 27.2912C13.2444 26.838 13.8591 26.5833 14.5 26.5833Z" fill="white"/>
</svg>
