<svg width="26" height="18" viewBox="0 0 26 18" fill="none" xmlns="http://www.w3.org/2000/svg">
<g clip-path="url(#clip0_1_31)">
<path d="M16.8218 8.68166C14.5298 7.46273 10.092 5.17212 10.092 5.17212L16.0088 9.12981C16.0088 9.12981 14.931 9.72473 16.8218 8.68166Z" fill="#F6F6F6"/>
<path d="M10.5234 17.65C5.76278 17.5628 4.13681 17.4843 3.13739 17.2794C2.46122 17.1433 1.87362 16.841 1.44278 16.4025C1.10979 16.0707 0.844983 15.5643 0.639534 14.8619C0.463302 14.2767 0.394664 13.7897 0.296809 12.6003C0.147012 9.91604 0.111302 7.72143 0.296809 5.26927C0.449852 3.91512 0.524055 2.30758 1.54063 1.36973C2.02064 0.930811 2.57901 0.648349 3.20603 0.53158C4.1855 0.346503 8.35849 0.200195 12.6785 0.200195C16.9888 0.200195 21.171 0.346503 22.1514 0.53158C22.9347 0.677888 23.6693 1.11635 24.1006 1.68173C25.0282 3.13373 25.0444 4.93927 25.1385 6.35158C25.1775 7.0245 25.1775 10.8456 25.1385 11.5185C24.992 13.7505 24.8742 14.5402 24.5412 15.359C24.3353 15.8759 24.1595 16.1487 23.8553 16.451C23.3782 16.9162 22.7699 17.2256 22.1115 17.338C17.9919 17.6463 14.4937 17.7133 10.5234 17.65ZM16.832 8.68143C14.5401 7.4625 12.3455 6.33219 10.1023 5.16219V12.1619C12.4628 10.8848 14.9514 9.71481 16.8417 8.67173L16.832 8.68143Z" fill="white"/>
</g>
<defs>
<clipPath id="clip0_1_31">
<rect width="26" height="18" fill="white"/>
</clipPath>
</defs>
</svg>
