<svg width="23" height="16" viewBox="0 0 23 16" fill="none" xmlns="http://www.w3.org/2000/svg">
<g clip-path="url(#clip0_113_58)">
<path d="M14.881 7.717C12.8535 6.63351 8.92773 4.59741 8.92773 4.59741L14.1618 8.11536C14.1618 8.11536 13.2083 8.64418 14.881 7.717Z" fill="#F6F6F6"/>
<path d="M9.30899 15.689C5.0977 15.6114 3.65935 15.5417 2.77524 15.3595C2.17709 15.2385 1.6573 14.9698 1.27617 14.58C0.981603 14.2851 0.747346 13.835 0.565603 13.2106C0.409705 12.6904 0.348987 12.2576 0.262423 11.2003C0.12991 8.81429 0.0983208 6.86352 0.262423 4.68382C0.397808 3.48013 0.463449 2.05121 1.36273 1.21757C1.78735 0.827414 2.2813 0.576338 2.83596 0.472543C3.70242 0.30803 7.39391 0.177979 11.2154 0.177979C15.0284 0.177979 18.7281 0.30803 19.5953 0.472543C20.2883 0.602594 20.9381 0.992338 21.3197 1.4949C22.1402 2.78557 22.1545 4.39049 22.2378 5.64588C22.2723 6.24403 22.2723 9.64054 22.2378 10.2387C22.1082 12.2227 22.004 12.9246 21.7094 13.6524C21.5272 14.1119 21.3718 14.3544 21.1026 14.6231C20.6805 15.0366 20.1424 15.3117 19.5601 15.4116C15.9158 15.6857 12.8212 15.7452 9.30899 15.689ZM14.8897 7.71685C12.8622 6.63336 10.9209 5.62864 8.93647 4.58864V10.8106C11.0247 9.67542 13.2261 8.63541 14.8983 7.70823L14.8897 7.71685Z" fill="white"/>
</g>
<defs>
<clipPath id="clip0_113_58">
<rect width="23" height="16" fill="white"/>
</clipPath>
</defs>
</svg>
